<svg width="62" height="62" viewBox="0 0 62 62" fill="none" xmlns="http://www.w3.org/2000/svg">
<g filter="url(#filter0_d_555_5188)">
<rect x="2" y="2" width="50" height="50" rx="10" fill="#D9B1AD"/>
<rect x="2.5" y="2.5" width="49" height="49" rx="9.5" stroke="#880343"/>
</g>
<path d="M12 16.1429C12 14.9596 12.9596 14 14.1429 14H39.8571C41.0424 14 42 14.9596 42 16.1429C42 17.3281 41.0424 18.2857 39.8571 18.2857H14.1429C12.9596 18.2857 12 17.3281 12 16.1429ZM12 26.8571C12 25.6719 12.9596 24.7143 14.1429 24.7143H39.8571C41.0424 24.7143 42 25.6719 42 26.8571C42 28.0424 41.0424 29 39.8571 29H14.1429C12.9596 29 12 28.0424 12 26.8571ZM39.8571 39.7143H14.1429C12.9596 39.7143 12 38.7567 12 37.5714C12 36.3862 12.9596 35.4286 14.1429 35.4286H39.8571C41.0424 35.4286 42 36.3862 42 37.5714C42 38.7567 41.0424 39.7143 39.8571 39.7143Z" fill="#2B0D16"/>
<defs>
<filter id="filter0_d_555_5188" x="0" y="0" width="62" height="62" filterUnits="userSpaceOnUse" color-interpolation-filters="sRGB">
<feFlood flood-opacity="0" result="BackgroundImageFix"/>
<feColorMatrix in="SourceAlpha" type="matrix" values="0 0 0 0 0 0 0 0 0 0 0 0 0 0 0 0 0 0 127 0" result="hardAlpha"/>
<feOffset dx="4" dy="4"/>
<feGaussianBlur stdDeviation="3"/>
<feComposite in2="hardAlpha" operator="out"/>
<feColorMatrix type="matrix" values="0 0 0 0 0.166667 0 0 0 0 0.0520833 0 0 0 0 0.0863095 0 0 0 1 0"/>
<feBlend mode="normal" in2="BackgroundImageFix" result="effect1_dropShadow_555_5188"/>
<feBlend mode="normal" in="SourceGraphic" in2="effect1_dropShadow_555_5188" result="shape"/>
</filter>
</defs>
</svg>
