<svg width="750" height="997" viewBox="0 0 750 997" fill="none" xmlns="http://www.w3.org/2000/svg">
<g clip-path="url(#clip0_688_4226)">
<rect width="750" height="997" rx="375" fill="white"/>
<ellipse cx="374" cy="487.5" rx="461" ry="495.5" fill="#F6F5EE"/>
<path d="M778 336C638.379 575.018 426.953 1070.44 698.217 1140L778 336Z" fill="#761520" stroke="black"/>
<path d="M347.28 983L60 642V962.852L347.28 983Z" fill="#D9B1AD"/>
<path d="M767.5 660.5L425.5 983H767.5V660.5Z" fill="#D9B1AD"/>
<path d="M748.5 251L-4 -18L899 11L748.5 251Z" fill="#F0ECDE"/>
<path d="M-105.681 538.036C54.2745 579.155 212.248 182.327 271.24 -21.2265L-105.681 -83C-172.328 106.879 -265.636 496.916 -105.681 538.036Z" fill="#FACCC7"/>
<path d="M969.242 538.036C733.273 576.514 575.809 181.227 526.574 -21.2265H1047.6C1119.8 149.161 1205.21 499.557 969.242 538.036Z" fill="#FACCC7"/>
<path d="M-4 467C142.9 688.181 365.348 1146.63 79.9427 1211L-4 467Z" fill="#761520"/>
<path d="M357.941 185C264.741 196.6 277.774 61.1667 295.941 -8H496.441C521.941 144.5 474.441 170.5 357.941 185Z" fill="#FACCC7"/>
<path d="M98.3397 561L107 569.66L115.66 561L107 552.34L98.3397 561ZM614.496 561L605.836 552.34L597.175 561L605.836 569.66L614.496 561ZM107 562.5H605.836V559.5H107V562.5Z" fill="#761520"/>
</g>
<defs>
<clipPath id="clip0_688_4226">
<rect width="750" height="997" rx="375" fill="white"/>
</clipPath>
</defs>
</svg>
