<svg width="1131" height="807" viewBox="0 0 1131 807" fill="none" xmlns="http://www.w3.org/2000/svg">
<rect width="1130" height="803" rx="20" fill="#F6F5EE"/>
<path fill-rule="evenodd" clip-rule="evenodd" d="M611.575 0.692708C610.488 6.76529 609.377 12.9641 610.634 18.732C611.709 23.6686 613.674 29.5484 616.31 33.5455C616.763 34.2328 617.373 34.907 618.002 35.6017C619.244 36.9746 620.559 38.4277 620.88 40.2207C621.486 43.6043 620.402 45.7655 619.143 48.2747C618.865 48.8288 618.579 49.3999 618.3 50.0049C617.834 51.0155 616.987 50.9848 616.117 50.9532C615.483 50.9303 614.838 50.9068 614.32 51.2851C612.535 52.5871 612.756 56.6427 612.916 59.5849C612.956 60.3223 612.993 60.9898 612.993 61.5265C612.993 64.7456 612.661 68.4338 612.315 72.285C611.408 82.3681 610.401 93.568 614.983 100.389C618.943 106.284 618.633 117.725 618.398 126.409C618.347 128.286 618.3 130.035 618.3 131.57C618.3 137.345 617.296 142.568 616.296 147.768C615.306 152.92 614.32 158.048 614.32 163.666C614.32 169.325 613.615 169.979 609.749 172.719C607.716 174.16 608.452 186.012 608.84 192.266C608.925 193.632 608.993 194.731 609.012 195.396C609.092 198.149 610.068 200.758 611.035 203.339C611.98 205.863 612.916 208.36 612.993 210.941C613.083 213.965 613.365 216.606 613.646 219.237C613.984 222.398 614.32 225.544 614.32 229.321C614.32 230.509 614.354 231.599 614.386 232.606C614.519 236.808 614.607 239.588 611.961 242.214C610.551 243.613 609.403 243.805 608.522 243.952C607.086 244.191 606.359 244.312 606.359 249.346C606.359 250.146 606.363 250.926 606.367 251.69C606.4 257.532 606.428 262.46 604.442 268.092C603.857 269.752 602.719 271.009 601.587 272.261C600.03 273.983 598.482 275.694 598.398 278.425C598.378 279.071 598.353 279.734 598.327 280.409C598.1 286.398 597.837 293.347 600.756 298.176C602.376 300.855 602.205 303.82 602.037 306.747C601.904 309.058 601.773 311.345 602.526 313.447C605.576 321.961 606.507 331.462 607.456 341.134C608.348 350.24 609.256 359.496 611.961 368.22C613.068 371.792 613.356 376.296 613.646 380.831C614.048 387.114 614.453 393.459 617.047 397.481C619.388 401.111 629.242 418.769 624.934 423.816C624.014 424.895 623.094 425.084 622.236 425.261C620.974 425.521 619.843 425.754 619.037 428.754C618.286 431.55 618.292 434.385 618.299 437.271C618.299 437.541 618.3 437.811 618.3 438.081C618.3 439.275 618.253 440.517 618.206 441.776C618.102 444.54 617.995 447.384 618.374 449.968C618.609 451.571 619.088 452.614 619.571 453.664C620.259 455.162 620.954 456.674 620.954 459.844C620.954 468.168 619.496 470.979 615.057 476.486C612.696 479.415 613.418 489.132 613.958 496.407C614.15 498.991 614.32 501.267 614.32 502.821C614.32 504.104 614.266 505.472 614.21 506.877C614.033 511.375 613.84 516.262 615.352 520.012C615.795 521.112 616.548 521.828 617.302 522.546C618.203 523.402 619.104 524.26 619.479 525.773C619.989 527.829 619.856 530.392 619.732 532.8C619.679 533.825 619.627 534.822 619.627 535.74C619.627 539.858 618.662 543.352 617.682 546.903C616.715 550.407 615.732 553.966 615.646 558.234C615.632 558.954 615.613 559.685 615.593 560.424C615.434 566.418 615.26 572.956 617.563 578.26C618.654 580.775 618.236 581.424 617.012 583.321L616.973 583.381C615.822 585.167 614.238 586.152 612.642 587.145C610.456 588.506 608.247 589.881 607.096 593.348C605.815 597.207 605.418 603.792 605.137 608.466C605.1 609.07 605.066 609.643 605.032 610.173C604.909 612.07 603.978 613.431 603.041 614.801C602.389 615.753 601.735 616.71 601.346 617.854C600.414 620.6 600.662 624.849 600.88 628.603C600.968 630.112 601.051 631.541 601.051 632.759C601.051 633.613 601.068 634.475 601.085 635.34C601.119 637.076 601.153 638.822 601.051 640.531C600.931 642.538 600.061 644.004 599.17 645.505C598.242 647.067 597.292 648.668 597.145 650.956C596.48 661.262 598.014 677.676 603.705 685.52C604.832 687.074 606.942 686.632 609.031 686.195C610.988 685.785 612.926 685.379 614.025 686.618C617.282 690.291 616.654 695.759 616.073 700.817C615.856 702.702 615.646 704.529 615.646 706.186C615.646 720.89 616.27 735.562 616.884 749.991L616.973 752.09C617.636 767.702 617.439 781.672 612.329 795.616C611.083 799.016 610.213 802.978 609.678 807H1110.01C1121.06 807 1130.01 798.046 1130.01 787V20C1130.01 8.95431 1121.06 0 1110.01 0H611.699C611.658 0.230699 611.617 0.461612 611.575 0.692708Z" fill="#761520"/>
</svg>
