<svg width="807" height="1131" viewBox="0 0 807 1131" fill="none" xmlns="http://www.w3.org/2000/svg">
<rect x="807" width="1130" height="803" rx="20" transform="rotate(90 807 0)" fill="#F6F5EE"/>
<path fill-rule="evenodd" clip-rule="evenodd" d="M806.307 611.575C800.235 610.488 794.036 609.377 788.268 610.634C783.331 611.709 777.452 613.674 773.454 616.31C772.767 616.763 772.093 617.373 771.398 618.002C770.025 619.244 768.572 620.559 766.779 620.88C763.396 621.486 761.235 620.402 758.725 619.143C758.171 618.865 757.6 618.579 756.995 618.3C755.984 617.834 756.015 616.987 756.047 616.117C756.07 615.483 756.093 614.838 755.715 614.32C754.413 612.535 750.357 612.756 747.415 612.916C746.678 612.956 746.01 612.993 745.474 612.993C742.254 612.993 738.566 612.661 734.715 612.315C724.632 611.408 713.432 610.401 706.611 614.983C700.716 618.943 689.275 618.633 680.591 618.398C678.714 618.347 676.965 618.3 675.43 618.3C669.655 618.3 664.432 617.296 659.232 616.296C654.08 615.306 648.952 614.32 643.334 614.32C637.675 614.32 637.021 613.615 634.281 609.749C632.84 607.716 620.988 608.452 614.734 608.84C613.368 608.925 612.269 608.993 611.604 609.012C608.851 609.092 606.242 610.068 603.661 611.035C601.137 611.98 598.64 612.916 596.059 612.993C593.035 613.083 590.394 613.365 587.763 613.646C584.602 613.984 581.456 614.32 577.679 614.32C576.491 614.32 575.401 614.354 574.394 614.386C570.192 614.519 567.412 614.607 564.786 611.961C563.387 610.551 563.195 609.403 563.048 608.522C562.809 607.086 562.688 606.359 557.654 606.359C556.854 606.359 556.074 606.363 555.31 606.367C549.468 606.4 544.54 606.428 538.908 604.442C537.248 603.857 535.991 602.719 534.739 601.587C533.017 600.03 531.306 598.482 528.575 598.398C527.929 598.378 527.266 598.353 526.591 598.327C520.602 598.1 513.653 597.837 508.824 600.756C506.145 602.376 503.18 602.205 500.253 602.037C497.942 601.904 495.655 601.773 493.553 602.526C485.039 605.576 475.538 606.507 465.866 607.456C456.76 608.348 447.504 609.256 438.78 611.961C435.208 613.068 430.704 613.356 426.169 613.646C419.886 614.048 413.541 614.453 409.519 617.047C405.889 619.388 388.231 629.242 383.184 624.934C382.105 624.014 381.916 623.094 381.739 622.236C381.479 620.974 381.246 619.843 378.246 619.037C375.45 618.286 372.615 618.292 369.729 618.299C369.459 618.299 369.189 618.3 368.919 618.3C367.725 618.3 366.483 618.253 365.224 618.206C362.46 618.102 359.616 617.995 357.032 618.374C355.429 618.609 354.386 619.088 353.336 619.571C351.838 620.259 350.326 620.954 347.156 620.954C338.832 620.954 336.021 619.496 330.514 615.057C327.585 612.696 317.868 613.418 310.593 613.958C308.009 614.15 305.733 614.32 304.179 614.32C302.896 614.32 301.528 614.266 300.123 614.21C295.625 614.033 290.738 613.84 286.988 615.352C285.888 615.795 285.172 616.548 284.454 617.302C283.598 618.203 282.74 619.104 281.227 619.479C279.171 619.989 276.608 619.856 274.2 619.732C273.175 619.679 272.178 619.627 271.26 619.627C267.142 619.627 263.648 618.662 260.097 617.682C256.593 616.715 253.034 615.732 248.766 615.646C248.046 615.632 247.315 615.613 246.576 615.593C240.582 615.434 234.044 615.26 228.74 617.563C226.225 618.654 225.576 618.236 223.679 617.012L223.619 616.973C221.833 615.822 220.848 614.238 219.855 612.642C218.494 610.456 217.119 608.247 213.652 607.096C209.793 605.815 203.208 605.418 198.534 605.137C197.93 605.1 197.357 605.066 196.827 605.032C194.93 604.909 193.569 603.978 192.199 603.041C191.247 602.389 190.29 601.735 189.146 601.346C186.4 600.414 182.151 600.662 178.397 600.88C176.888 600.968 175.459 601.051 174.241 601.051C173.387 601.051 172.525 601.068 171.66 601.085C169.924 601.119 168.178 601.153 166.469 601.051C164.462 600.931 162.996 600.061 161.495 599.17C159.933 598.242 158.332 597.292 156.044 597.145C145.738 596.48 129.324 598.014 121.48 603.705C119.926 604.832 120.368 606.942 120.805 609.031C121.215 610.988 121.621 612.926 120.382 614.025C116.709 617.282 111.241 616.654 106.183 616.073C104.298 615.856 102.471 615.646 100.814 615.646C86.1097 615.646 71.4384 616.27 57.009 616.884L54.9104 616.973C39.2982 617.636 25.3281 617.439 11.3845 612.329C7.98395 611.083 4.02234 610.213 0 609.678V1110.01C0 1121.06 8.95428 1130.01 20 1130.01H787C798.046 1130.01 807 1121.06 807 1110.01V611.699C806.769 611.658 806.538 611.617 806.307 611.575Z" fill="#761520"/>
</svg>
