<svg width="29" height="41" viewBox="0 0 29 41" fill="none" xmlns="http://www.w3.org/2000/svg">
<path d="M5.0998 2.26756L5.71631 18.6008L15.6507 17.9223L15.0651 2.40565C15.0569 2.18906 14.9792 1.98611 14.849 1.84145C14.7188 1.6968 14.5468 1.62228 14.3709 1.6343L5.0998 2.26756Z" fill="#5B2904" stroke="#45413C" stroke-linecap="round" stroke-linejoin="round"/>
<path d="M9.01275 1.95704L9.64526 18.4099L13.0662 18.1808L12.4337 1.72795L9.01275 1.95704Z" fill="#2B0D16" stroke="#A15E7E" stroke-linecap="round" stroke-linejoin="round"/>
<path d="M8.63214 5.23052C8.62443 5.01328 8.54687 4.80989 8.41628 4.66449C8.28568 4.51909 8.1126 4.4434 7.93456 4.45384L7.26632 4.50251C7.08909 4.51542 6.91606 4.44185 6.78531 4.298C6.65455 4.15414 6.57677 3.95178 6.56908 3.73542C6.56138 3.51907 6.62441 3.30645 6.74429 3.14434C6.86417 2.98223 7.03109 2.8839 7.20831 2.87099C7.49056 2.85139 7.76193 2.72322 7.98355 2.50485C8.20516 2.28647 8.36564 1.9891 8.44198 1.65535C8.4534 1.59342 8.45279 1.52932 8.44019 1.46821C8.4276 1.40711 8.40339 1.3507 8.3695 1.30354C8.33561 1.25639 8.29299 1.2198 8.24509 1.19674C8.19719 1.17367 8.14533 1.16477 8.09371 1.17075L8.63214 5.23052ZM8.63214 5.23052C8.63595 5.33765 8.62244 5.44499 8.59237 5.54641M8.63214 5.23052L8.59237 5.54641M8.59237 5.54641C8.56231 5.64783 8.51629 5.74134 8.45693 5.82161L8.59237 5.54641ZM5.17908 1.88413L7.92136 1.68438C7.85835 1.87696 7.75864 2.03739 7.64065 2.15366C7.5 2.29225 7.3424 2.36066 7.19224 2.37108L7.19055 2.3712C6.84561 2.39633 6.54617 2.58657 6.3474 2.85536C6.1508 3.12122 6.05883 3.4513 6.07022 3.77176C6.08162 4.09222 6.19652 4.40723 6.41096 4.64315C6.62776 4.88167 6.93915 5.02742 7.28409 5.0023L7.94683 4.95403C7.96009 4.95371 7.99589 4.95839 8.04005 5.00756C8.0883 5.06129 8.12925 5.15298 8.13329 5.26683L8.13329 5.26686C8.1352 5.32065 8.12828 5.37293 8.11435 5.41995C8.10039 5.46703 8.08064 5.50477 8.06004 5.53264C8.03954 5.56035 8.01995 5.57609 8.00579 5.58443C7.99215 5.59247 7.98204 5.59467 7.97514 5.59518C7.6302 5.6203 7.33076 5.81054 7.13199 6.07933C6.93539 6.34519 6.84342 6.67527 6.85481 6.99573C6.8662 7.31619 6.98111 7.6312 7.19555 7.86712C7.41235 8.10564 7.72374 8.25139 8.06867 8.22627L8.73692 8.1776C8.92367 8.16399 9.13136 8.23894 9.30683 8.43199C9.48467 8.62764 9.6031 8.91972 9.61478 9.24832C9.62646 9.57692 9.52935 9.8847 9.36631 10.1052C9.20544 10.3227 9.00414 10.4275 8.81739 10.4411L7.83468 10.5127C7.48975 10.5378 7.1903 10.728 6.99153 10.9968C6.79494 11.2627 6.70296 11.5928 6.71435 11.9132C6.72575 12.2337 6.84066 12.5487 7.05509 12.7846C7.2719 13.0231 7.58328 13.1689 7.92822 13.1437L8.2529 13.1201C8.26615 13.1198 8.30195 13.1244 8.34613 13.1736C8.39438 13.2274 8.43533 13.3191 8.43937 13.4329L8.43937 13.4329C8.44128 13.4867 8.43436 13.539 8.42043 13.586C8.40647 13.6331 8.38673 13.6708 8.36612 13.6987C8.34561 13.7264 8.32601 13.7422 8.31187 13.7505C8.29823 13.7585 8.28812 13.7607 8.28121 13.7612L7.95103 13.7853C7.60609 13.8104 7.30665 14.0007 7.10788 14.2695C6.91128 14.5353 6.81931 14.8654 6.8307 15.1859C6.84209 15.5063 6.957 15.8213 7.17144 16.0572C7.38825 16.2958 7.69963 16.4415 8.04456 16.4164L8.67976 16.3701C8.77159 16.3793 8.87887 16.4289 8.97431 16.5438C9.07838 16.6691 9.14971 16.8527 9.15712 17.0611C9.16453 17.2695 9.10659 17.4625 9.01194 17.6023C8.92515 17.7304 8.82193 17.7954 8.73123 17.8178L6.00253 18.0166L1.85471 13.0208C1.97816 9.80861 2.41191 7.00912 3.0497 4.99942C3.37558 3.97255 3.74586 3.18053 4.13452 2.64752C4.52712 2.10909 4.88336 1.90567 5.17908 1.88413Z" fill="#FF6242" stroke="#AF8738"/>
<path d="M7.96879 14.2851C7.79156 14.298 7.62465 14.3963 7.50477 14.5584C7.38489 14.7205 7.32186 14.9332 7.32955 15.1495C7.33725 15.3659 7.41503 15.5682 7.54578 15.7121C7.67654 15.8559 7.84957 15.9295 8.0268 15.9166L8.69504 15.8679C8.94652 15.8768 9.18465 16.0005 9.3625 16.2146C9.54036 16.4287 9.64506 16.7177 9.65597 17.0247C9.66689 17.3318 9.58323 17.6345 9.42148 17.8734C9.25972 18.1122 9.0316 18.2699 8.78204 18.3152L5.77103 18.5345L1.34904 13.2085C1.57813 6.57183 3.11728 1.53323 5.16131 1.38434L8.09371 1.17075C8.14533 1.16477 8.19719 1.17367 8.24509 1.19674C8.29299 1.2198 8.33561 1.25639 8.3695 1.30354C8.40339 1.3507 8.4276 1.40711 8.44019 1.46821C8.45279 1.52932 8.4534 1.59342 8.44198 1.65535C8.36564 1.9891 8.20516 2.28647 7.98355 2.50485C7.76193 2.72322 7.49056 2.85139 7.20831 2.87099C7.03109 2.8839 6.86417 2.98223 6.74429 3.14434C6.62441 3.30645 6.56138 3.51907 6.56908 3.73542C6.57677 3.95178 6.65455 4.15414 6.78531 4.298C6.91606 4.44185 7.08909 4.51542 7.26632 4.50251L7.93456 4.45384C8.1126 4.4434 8.28568 4.51909 8.41628 4.66449C8.54687 4.80989 8.62443 5.01328 8.63214 5.23052C8.63595 5.33765 8.62244 5.44499 8.59237 5.54641C8.56231 5.64783 8.51629 5.74134 8.45693 5.82161C8.39757 5.90188 8.32604 5.96733 8.24642 6.01424C8.1668 6.06114 8.08066 6.08857 7.9929 6.09496C7.81567 6.10787 7.64876 6.2062 7.52888 6.36831C7.409 6.53042 7.34597 6.74304 7.35366 6.9594C7.36136 7.17575 7.43914 7.37811 7.56989 7.52197C7.70065 7.66583 7.87368 7.73939 8.05091 7.72648L8.71915 7.67781C9.0736 7.65199 9.41965 7.79912 9.68117 8.08684C9.94269 8.37455 10.0982 8.77928 10.1136 9.21198C10.129 9.64469 10.003 10.0699 9.7632 10.3942C9.52344 10.7184 9.18961 10.915 8.83515 10.9409L7.85245 11.0124C7.67522 11.0253 7.5083 11.1237 7.38842 11.2858C7.26854 11.4479 7.20551 11.6605 7.21321 11.8769C7.2209 12.0932 7.29868 12.2956 7.42944 12.4394C7.5602 12.5833 7.73322 12.6569 7.91045 12.644L8.24064 12.6199C8.41868 12.6095 8.59176 12.6852 8.72236 12.8306C8.85295 12.976 8.93051 13.1793 8.93822 13.3966C8.94203 13.5037 8.92852 13.6111 8.89845 13.7125C8.86839 13.8139 8.82236 13.9074 8.76301 13.9877C8.70365 14.068 8.63212 14.1334 8.5525 14.1803C8.47288 14.2272 8.38674 14.2546 8.29898 14.261L7.96879 14.2851Z" fill="#F0ECDE" stroke="#AF8738" stroke-linecap="round" stroke-linejoin="round"/>
<path d="M5.74609 15.7295L5.17701 3.76451" stroke="#AF8738" stroke-linecap="round" stroke-linejoin="round"/>
<path d="M13.3643 38.8884C15.7714 38.7133 17.4865 32.1686 17.2053 24.2675C16.924 16.3665 14.7535 10.114 12.3464 10.2891L22.4153 9.55665C24.7753 9.38497 26.9688 15.6165 27.2507 23.5367C27.5325 31.457 25.7932 37.9843 23.4333 38.1559L13.3643 38.8884Z" fill="#5B2904" stroke="#45413C" stroke-linecap="round" stroke-linejoin="round"/>
<path d="M17.3018 38.678C19.7073 38.5052 21.5043 31.9265 21.2185 23.9888C20.9327 16.0511 18.7128 9.77049 16.2671 9.94613L19.675 9.70139C22.1286 9.52518 24.3489 15.8154 24.6343 23.7435C24.9198 31.6715 23.1633 38.257 20.7096 38.4332L17.3018 38.678Z" fill="#2B0D16" stroke="#A15E7E" stroke-linecap="round" stroke-linejoin="round"/>
<path d="M9.10108 24.7724C9.0735 23.9987 9.06495 23.2351 9.0737 22.489L12.642 26.5142L13.5699 27.5609L13.5191 26.1373L12.9492 10.1501C12.9473 10.0962 12.9542 10.0439 12.9682 9.99684C12.9822 9.94972 13.002 9.9119 13.0227 9.88393L12.6259 9.5946L13.0227 9.88393C13.0433 9.8561 13.063 9.84024 13.0774 9.83178L12.837 9.40179L13.0774 9.83178C13.0913 9.82362 13.1017 9.82132 13.1089 9.82079L17.434 9.50671C17.5266 9.51589 17.6345 9.56583 17.7303 9.68101L18.1183 9.35164L17.7303 9.68102C17.8347 9.80654 17.9062 9.99039 17.9137 10.199C17.9211 10.4075 17.8631 10.6008 17.7681 10.7408C17.6801 10.8706 17.5751 10.9359 17.4829 10.9578C17.0627 10.9996 16.6921 11.2358 16.4394 11.5772C16.1816 11.9253 16.0574 12.3633 16.0728 12.7938C16.0881 13.2242 16.2428 13.642 16.524 13.951C16.8075 14.2625 17.207 14.4454 17.642 14.4139L18.9818 14.3166L19.0026 14.3151L19.0232 14.3118C19.1684 14.2891 19.3175 14.3023 19.4632 14.354L19.6448 13.8809L19.4632 14.354C19.6095 14.4059 19.7529 14.497 19.8813 14.6285C20.0098 14.7602 20.1192 14.9282 20.1984 15.125C20.2776 15.3217 20.3234 15.5396 20.3314 15.7644C20.3395 15.9892 20.3093 16.2126 20.2446 16.4198C20.1798 16.627 20.0829 16.81 19.9644 16.9597C19.846 17.1091 19.7099 17.2204 19.568 17.2933C19.432 17.3631 19.2904 17.3979 19.1497 17.399C19.0252 17.3904 18.9005 17.4121 18.7847 17.4614C18.659 17.515 18.5522 17.5974 18.4681 17.695C18.3843 17.7924 18.3238 17.904 18.2855 18.0192C18.2472 18.1345 18.2306 18.2549 18.2348 18.373C18.239 18.491 18.2641 18.6084 18.3104 18.7175C18.3567 18.8266 18.4248 18.9288 18.5151 19.0136C18.6057 19.0986 18.7179 19.165 18.8467 19.2001L18.8467 19.2001C18.958 19.2304 19.0754 19.2354 19.1911 19.214L21.5207 19.0448C21.6208 19.0375 21.7437 19.0765 21.8549 19.1987C21.9685 19.3235 22.0487 19.5159 22.0566 19.7378C22.0645 19.9597 21.9984 20.1626 21.8943 20.3033C21.7923 20.441 21.6728 20.4975 21.5727 20.5048L20.5832 20.5767C20.2764 20.577 19.9737 20.6526 19.6948 20.7958L19.909 21.2402L19.6948 20.7958C19.4096 20.9423 19.1588 21.1543 18.9545 21.4122C18.7503 21.67 18.5954 21.9696 18.4952 22.2903C18.3949 22.6111 18.3502 22.9497 18.3622 23.2859C18.3742 23.6222 18.4427 23.9526 18.5653 24.2572C18.6878 24.5617 18.8632 24.8374 19.0847 25.0642C19.3063 25.2912 19.5709 25.4658 19.865 25.5702C20.1527 25.6723 20.4591 25.7037 20.7644 25.6595L21.0353 25.6398C21.1279 25.649 21.2358 25.6989 21.3316 25.8141C21.436 25.9396 21.5075 26.1235 21.515 26.3321C21.5224 26.5406 21.4644 26.7339 21.3694 26.8739C21.2823 27.0024 21.1785 27.0677 21.0871 27.0902L20.4423 27.137C20.0073 27.1686 19.6228 27.4085 19.3629 27.7595C19.1051 28.1076 18.981 28.5457 18.9963 28.9761C19.0117 29.4065 19.1663 29.8243 19.4475 30.1333C19.7311 30.4448 20.1306 30.6278 20.5656 30.5962L20.5864 30.5947L20.607 30.5914C20.7522 30.5687 20.9014 30.5819 21.047 30.6336C21.1934 30.6855 21.3367 30.7766 21.4651 30.9081C21.5936 31.0398 21.703 31.2079 21.7822 31.4046C21.8614 31.6013 21.9072 31.8192 21.9153 32.044C21.9233 32.2688 21.8931 32.4922 21.8284 32.6994C21.7636 32.9066 21.6667 33.0896 21.5482 33.2393C21.4298 33.3887 21.2937 33.5 21.1518 33.5729C21.0106 33.6454 20.8631 33.6802 20.7171 33.6786L20.6963 33.6784L20.6755 33.6799L18.6659 33.8258C18.2309 33.8574 17.8465 34.0972 17.5865 34.4483C17.3288 34.7964 17.2046 35.2344 17.22 35.6649C17.2353 36.0953 17.39 36.5131 17.6712 36.8221C17.9547 37.1336 18.3542 37.3165 18.7892 37.2849L18.816 37.283L18.8426 37.2782C18.8971 37.2683 18.9543 37.2717 19.0125 37.2912C19.0714 37.311 19.1341 37.3482 19.1936 37.4079C19.2533 37.4678 19.3069 37.5476 19.3466 37.6451C19.3864 37.7427 19.41 37.8524 19.414 37.9667C19.4181 38.0809 19.4025 38.1935 19.3699 38.2963L19.845 38.4323L19.3699 38.2963C19.3372 38.3991 19.2896 38.4862 19.2345 38.5544C19.1795 38.6224 19.1198 38.6686 19.0626 38.6967C19.0061 38.7246 18.9495 38.7363 18.8945 38.7343L18.8678 38.7334L18.8409 38.7353L13.482 39.1245C13.1321 39.1499 12.6808 38.9318 12.1645 38.2469C11.6601 37.5777 11.171 36.5591 10.7357 35.243C9.86733 32.6174 9.24889 28.9185 9.10108 24.7724Z" fill="#F0ECDE" stroke="#AF8738"/>
<path d="M8.60776 21.196C8.56217 22.3552 8.55804 23.5692 8.60222 24.8086C8.90021 33.1673 11.0961 39.7988 13.4998 39.6243L18.8587 39.2351C18.9987 39.2401 19.1385 39.2094 19.2691 39.1451C19.3997 39.0807 19.5184 38.9841 19.6176 38.8614C19.7167 38.7387 19.7942 38.5925 19.845 38.4323C19.8959 38.272 19.919 38.1011 19.9129 37.9304C19.9068 37.7598 19.8717 37.5931 19.8097 37.441C19.7477 37.2889 19.6602 37.1548 19.5529 37.047C19.4455 36.9393 19.3206 36.8604 19.186 36.8153C19.0515 36.7702 18.9103 36.76 18.7714 36.7852C18.5039 36.8046 18.2427 36.6937 18.0453 36.4768C17.8479 36.2599 17.7304 35.9548 17.7188 35.6286C17.7072 35.3025 17.8023 34.982 17.9833 34.7376C18.1642 34.4932 18.4162 34.345 18.6837 34.3256L20.6933 34.1797C20.9236 34.1822 21.1526 34.1269 21.3661 34.0173C21.5796 33.9076 21.773 33.7459 21.9344 33.5423C22.0958 33.3386 22.2216 33.0973 22.3042 32.8333C22.3867 32.5693 22.4241 32.2883 22.4141 32.0078C22.4041 31.7272 22.3469 31.4531 22.246 31.2025C22.1452 30.9518 22.0028 30.73 21.8278 30.5507C21.6527 30.3715 21.4488 30.2386 21.2286 30.1605C21.0084 30.0823 20.7767 30.0605 20.5478 30.0964C20.2802 30.1158 20.019 30.0049 19.8216 29.788C19.6242 29.5711 19.5068 29.266 19.4952 28.9399C19.4835 28.6137 19.5787 28.2932 19.7596 28.0488C19.9406 27.8045 20.1925 27.6563 20.4601 27.6368L21.1378 27.5876C21.388 27.5422 21.6167 27.3845 21.7788 27.1454C21.9409 26.9063 22.0248 26.6032 22.0138 26.2958C22.0029 25.9885 21.8979 25.6991 21.7196 25.4848C21.5413 25.2704 21.3026 25.1466 21.0505 25.1376L20.7274 25.1611C20.4985 25.197 20.2667 25.1752 20.0465 25.097C19.8263 25.0189 19.6224 24.886 19.4474 24.7068C19.2723 24.5275 19.13 24.3057 19.0291 24.055C18.9282 23.8044 18.871 23.5303 18.861 23.2497C18.851 22.9692 18.8885 22.6882 18.971 22.4242C19.0535 22.1602 19.1793 21.9189 19.3407 21.7152C19.5021 21.5116 19.6955 21.3499 19.909 21.2402C20.1226 21.1306 20.3515 21.0753 20.5818 21.0778L21.5906 21.0046C21.8581 20.9852 22.1101 20.837 22.291 20.5926C22.472 20.3482 22.5671 20.0277 22.5555 19.7016C22.5438 19.3754 22.4264 19.0703 22.229 18.8534C22.0316 18.6365 21.7704 18.5256 21.5029 18.545L19.1386 18.7167C19.0907 18.7293 19.0412 18.7291 18.9936 18.7161C18.9461 18.7032 18.9015 18.6778 18.8631 18.6417C18.8246 18.6056 18.7931 18.5597 18.7708 18.507C18.7485 18.4544 18.7358 18.3963 18.7337 18.3367C18.7315 18.2772 18.74 18.2175 18.7585 18.1619C18.777 18.1063 18.805 18.0561 18.8407 18.0146C18.8764 17.9731 18.9189 17.9414 18.9653 17.9216C19.0117 17.9019 19.0609 17.8945 19.1095 17.9001C19.3398 17.9026 19.5688 17.8473 19.7823 17.7377C19.9958 17.628 20.1892 17.4663 20.3506 17.2627C20.512 17.059 20.6378 16.8177 20.7204 16.5537C20.8029 16.2897 20.8403 16.0087 20.8303 15.7282C20.8203 15.4476 20.7631 15.1735 20.6622 14.9229C20.5614 14.6722 20.419 14.4504 20.244 14.2711C20.0689 14.0919 19.865 13.959 19.6448 13.8809C19.4246 13.8027 19.1928 13.7809 18.9639 13.8168L17.6242 13.9141C17.3567 13.9335 17.0955 13.8226 16.8981 13.6057C16.7007 13.3888 16.5832 13.0837 16.5716 12.7575C16.56 12.4314 16.6551 12.1109 16.8361 11.8665C17.017 11.6221 17.269 11.4739 17.5365 11.4545C17.7867 11.4091 18.0154 11.2513 18.1775 11.0123C18.3396 10.7732 18.4235 10.4701 18.4125 10.1627C18.4016 9.85537 18.2966 9.56601 18.1183 9.35164C17.94 9.13727 17.7013 9.01344 17.4492 9.00454L13.0911 9.32101C13.0031 9.3274 12.9168 9.35485 12.837 9.40179C12.7571 9.44873 12.6854 9.51425 12.6259 9.5946C12.5664 9.67495 12.5203 9.76856 12.4902 9.87008C12.46 9.97161 12.4465 10.0791 12.4503 10.1863L13.0203 26.1735L8.60776 21.196Z" fill="#F0ECDE" stroke="#AF8738" stroke-linecap="round" stroke-linejoin="round"/>
<path d="M12.9238 20.8007L8.74501 21.1054L13.1089 26.0125L12.9238 20.8007Z" fill="#F0ECDE" stroke="#AF8738" stroke-linecap="round" stroke-linejoin="round"/>
<path d="M13.4126 38.0637C15.1878 37.9408 16.3676 31.7486 16.0884 24.251C15.8968 19.1043 15.05 14.6237 13.9692 12.4289" fill="#F0ECDE"/>
<path d="M13.4126 38.0637C15.1878 37.9408 16.3676 31.7486 16.0884 24.251C15.8968 19.1043 15.05 14.6237 13.9692 12.4289" stroke="#AF8738" stroke-linecap="round" stroke-linejoin="round"/>
<path d="M11.7392 28.1189C12.262 28.1199 12.764 28.4191 13.1347 28.9506C13.5055 29.4822 13.7148 30.2026 13.7164 30.9533C13.7181 31.7041 13.512 32.4237 13.1436 32.9539C12.7751 33.484 12.2744 33.7813 11.7517 33.7803C11.229 33.7793 10.727 33.4802 10.3562 32.9486C9.98542 32.417 9.77618 31.6966 9.77453 30.9459C9.77287 30.1951 9.97894 29.4755 10.3474 28.9454C10.7159 28.4152 11.2165 28.1179 11.7392 28.1189Z" fill="#2B0D16"/>
<path d="M11.0605 28.2919C11.2435 28.6528 11.4831 28.9469 11.7599 29.1502C12.0367 29.3535 12.3428 29.4602 12.6531 29.4616C12.886 29.4616 13.1168 29.4022 13.3348 29.2863C13.1518 28.9253 12.912 28.6311 12.6351 28.4278C12.3582 28.2245 12.052 28.1179 11.7416 28.1166C11.5089 28.1168 11.2783 28.1761 11.0605 28.2919Z" fill="#EC7067"/>
<path fill-rule="evenodd" clip-rule="evenodd" d="M7.57989 26.5904C7.57989 26.5904 6.81763 27.3701 6.66772 27.9658C6.51778 28.5615 6.75574 29.8648 6.75574 29.8648C6.75574 29.8648 7.51801 29.0851 7.66792 28.4894C7.81786 27.8937 7.57989 26.5904 7.57989 26.5904Z" fill="#88B03C"/>
<path fill-rule="evenodd" clip-rule="evenodd" d="M7.58386 26.5884C7.58386 26.5884 6.90101 25.8856 6.765 25.3502C6.62895 24.8148 6.83615 23.6453 6.83615 23.6453C6.83615 23.6453 7.51904 24.3481 7.65505 24.8835C7.79107 25.4189 7.58386 26.5884 7.58386 26.5884Z" fill="#8BA753"/>
<path d="M12.6435 23.4316C13.1663 23.4326 13.6682 23.7318 14.039 24.2634C14.4098 24.795 14.619 25.5154 14.6206 26.2661C14.6222 27.0169 14.4161 27.7365 14.0477 28.2666C13.6792 28.7968 13.1785 29.094 12.6558 29.093C12.133 29.092 11.6311 28.7927 11.2603 28.2611C10.8895 27.7296 10.6803 27.0091 10.6787 26.2584C10.6771 25.5076 10.8832 24.7881 11.2517 24.2579C11.6201 23.7278 12.1208 23.4305 12.6435 23.4316Z" fill="#2B0D16"/>
<path d="M11.5176 30.1538C11.5215 30.3002 11.5025 30.4459 11.462 30.5801C11.4214 30.7143 11.3604 30.8336 11.2834 30.9292C11.2064 31.0248 11.1154 31.0943 11.017 31.1325C10.9186 31.1708 10.8155 31.1768 10.7151 31.1502" stroke="#AF8738" stroke-linecap="round" stroke-linejoin="round"/>
<path d="M11.8934 25.1755C11.9586 25.3003 12.0045 25.4435 12.0279 25.5954C12.0512 25.7474 12.0516 25.9045 12.029 26.0564C12.0064 26.2083 11.9612 26.3513 11.8967 26.476C11.8321 26.6006 11.7495 26.704 11.6545 26.7791" stroke="#AF8738" stroke-linecap="round" stroke-linejoin="round"/>
<path fill-rule="evenodd" clip-rule="evenodd" d="M10.3157 29.0022L10.7776 29.8271C10.7898 29.851 10.8052 29.8711 10.8229 29.8862C10.8406 29.9014 10.8602 29.9112 10.8806 29.9152C10.901 29.9191 10.9218 29.9171 10.9416 29.9093C10.9614 29.9014 10.9799 29.8879 10.9959 29.8694C11.0119 29.851 11.0251 29.8281 11.0347 29.8021C11.0444 29.7761 11.0502 29.7475 11.0519 29.7181C11.0536 29.6887 11.0511 29.6592 11.0446 29.6311C11.0381 29.6031 11.0277 29.5773 11.014 29.5551L10.5395 28.7064C10.4596 28.7965 10.3848 28.8954 10.3157 29.0022ZM10.7447 25.5343C10.7863 25.546 10.828 25.554 10.8694 25.5678L11.4613 25.7638C11.4812 25.7723 11.5021 25.7748 11.5227 25.7713C11.5433 25.7678 11.5631 25.7583 11.581 25.7433C11.5989 25.7284 11.6145 25.7084 11.6267 25.6844C11.639 25.6605 11.6477 25.6332 11.6523 25.6043C11.6569 25.5753 11.6573 25.5453 11.6535 25.516C11.6497 25.4867 11.6418 25.4589 11.6302 25.4341C11.6186 25.4094 11.6036 25.3883 11.5862 25.3721C11.5687 25.3559 11.5492 25.345 11.5287 25.3401L10.9368 25.1431C10.9071 25.1332 10.8769 25.128 10.8471 25.1191C10.8055 25.2534 10.7712 25.3922 10.7447 25.5343Z" fill="#EC7067"/>
<path fill-rule="evenodd" clip-rule="evenodd" d="M7.34892 26.5847C7.34878 26.6334 7.36 26.6808 7.38079 26.7194C7.40158 26.758 7.43074 26.7855 7.46362 26.7975L7.99272 26.9882C8.79824 27.2788 9.51599 27.9407 10.0363 28.8723L10.7239 30.1032C10.736 30.127 10.7514 30.1471 10.769 30.1622C10.7867 30.1774 10.8063 30.1872 10.8266 30.1912C10.8469 30.1951 10.8676 30.1931 10.8874 30.1853C10.9071 30.1774 10.9255 30.1638 10.9415 30.1454C10.9574 30.127 10.9706 30.1042 10.9802 30.0782C10.9898 30.0522 10.9956 30.0237 10.9973 29.9944C10.999 29.965 10.9965 29.9354 10.9901 29.9075C10.9836 29.8795 10.9732 29.8536 10.9596 29.8315L10.2725 28.6006C9.71063 27.5946 8.93513 26.8804 8.06524 26.5666L7.93369 26.5196L8.27003 26.2779C9.05664 25.7137 9.95649 25.5622 10.8154 25.8484L11.4055 26.0443C11.4253 26.0527 11.4461 26.0553 11.4667 26.0517C11.4872 26.0482 11.507 26.0387 11.5248 26.0238C11.5426 26.0088 11.5581 25.9888 11.5703 25.9649C11.5825 25.941 11.5912 25.9138 11.5958 25.8848C11.6004 25.8559 11.6008 25.8259 11.597 25.7967C11.5932 25.7675 11.5853 25.7396 11.5738 25.7149C11.5623 25.6902 11.5473 25.6691 11.5299 25.6529C11.5125 25.6368 11.493 25.6259 11.4726 25.6209L10.8825 25.4242C9.95502 25.1152 8.98309 25.2797 8.1336 25.889L7.43198 26.3919C7.40707 26.4098 7.38614 26.4373 7.37148 26.4714C7.35683 26.5054 7.34902 26.5446 7.34892 26.5847Z" fill="#88B03C"/>
</svg>
