<svg width="32" height="33" viewBox="0 0 32 33" fill="none" xmlns="http://www.w3.org/2000/svg">
<path d="M2.65681 16.0132C2.64769 16.0881 0.0671568 17.3363 0.768326 19.635C1.16807 20.9453 3.37491 20.9344 4.15476 20.6457C4.94467 19.4451 6.04868 18.4644 6.28184 17.0237C6.09487 17.4036 5.89053 17.7725 5.64389 18.1166C5.89053 17.7725 6.09487 17.4036 6.28184 17.0237C6.29272 16.9639 6.30359 16.9042 6.30935 16.8442C5.03541 16.7276 3.77677 16.5164 2.65681 16.0132Z" fill="#683608"/>
<path d="M4.80213 11.5174C4.38609 11.8149 3.81919 12.0067 3.4884 12.3413C2.38231 13.4576 2.84018 14.688 2.65678 16.0131C3.7793 16.5164 5.03794 16.7277 6.30676 16.844C6.30087 16.9065 6.29013 16.9637 6.27925 17.0235C7.04191 15.4671 7.46934 13.7022 8.89049 12.547C8.73901 12.5491 8.58781 12.5463 8.43673 12.541C8.04999 13.011 7.68575 13.4922 7.38884 14.0097C7.68575 13.4922 8.04999 13.011 8.43673 12.541C7.14115 12.4937 5.88958 12.1495 4.80213 11.5174Z" fill="#683608"/>
<path d="M8.30273 6.52664C7.70124 6.74167 6.8394 6.78733 6.05791 7.58872C5.74852 7.90692 5.37482 8.32484 5.20566 9.04497C5.06699 9.62593 5.48425 10.4143 5.259 10.9832C5.17267 11.2074 5.00216 11.3745 4.79946 11.5198C5.88959 12.1496 7.14116 12.4937 8.43661 12.5435C9.75575 10.9431 11.3561 9.50569 11.5496 7.45967C10.3473 7.34685 9.24553 7.08091 8.30273 6.52664Z" fill="#683608"/>
<path d="M14.8709 4.58346C14.4778 3.38918 14.1003 2.33647 14.0448 2.3185C12.0008 1.63153 10.7258 0.956923 9.70525 2.15307C8.51783 3.54414 9.75355 4.52336 8.9284 6.04889C8.79455 6.29831 8.57474 6.42764 8.30536 6.52422C9.24816 7.07849 10.3498 7.34694 11.5523 7.45725C11.5417 7.55976 11.526 7.662 11.5104 7.76173C12.8931 6.99162 14.0302 5.87191 14.8709 4.58346Z" fill="#683608"/>
<path d="M11.508 7.76165C11.1949 9.64561 9.6902 11.0202 8.43687 12.541C8.58794 12.5464 8.73902 12.5517 8.89063 12.547C7.46948 13.7022 7.04205 15.4671 6.27939 17.0236C6.04623 18.4643 4.96164 19.5138 4.16918 20.7143C4.17968 20.7098 3.96313 20.6332 3.97363 20.6287L13.3 24.658L18.3035 27.3389C18.0167 27.1857 18.0496 24.5431 18.0142 24.1467C17.9171 23.0306 17.8202 21.9121 17.7205 20.7959C17.5161 18.5633 17.291 16.3321 16.9808 14.1116C16.6731 11.8912 16.2827 9.68155 15.7522 7.50235C15.5923 6.84302 15.2246 5.65508 14.8711 4.58351C14.0304 5.87196 12.8933 6.99167 11.508 7.76165Z" fill="#F2D299"/>
<path d="M18.1318 27.2369L22.3317 32.0527L28.8837 32.3433C28.8837 32.3433 30.0753 32.5611 30.2367 32.1799C30.4007 31.7963 29.6955 27.7907 29.5766 26.94C29.2708 24.78 28.7346 22.6583 28.1748 20.548C27.9271 19.6101 27.5568 18.6634 27.4485 17.7101C27.3247 16.6128 27.1799 15.6224 26.857 14.555C25.8966 11.3907 24.9794 8.23373 24.0988 5.06608C23.9115 4.39025 23.3817 3.64381 22.6711 3.451C21.9908 3.26731 21.229 3.3609 20.5288 3.26163C18.3698 2.95325 16.2107 2.64488 14.0543 2.33413C17.0049 10.3777 17.3279 18.8677 18.1318 27.2369Z" fill="#683608"/>
<path d="M21.9558 6.81463C21.4807 6.05344 21.1227 5.3084 20.7199 4.63392C19.2534 4.47217 16.935 4.21834 15.6139 4.07169C16.3098 5.93777 16.8995 7.82596 17.6098 9.61487C18.3848 12.8876 18.8701 16.3992 20.4571 19.7443C20.9227 20.588 21.357 21.249 21.552 22.0685C21.6472 23.9436 21.8199 25.4707 22.2099 27.1072C22.5353 28.8032 23.3058 30.3288 23.136 32.1222C24.3236 32.1262 26.516 32.1447 27.2796 32.2096C27.8593 32.2599 28.4204 32.3217 28.8285 32.3178C27.351 25.7585 25.8455 19.1952 23.5893 12.5652C22.9285 10.9045 23.4476 8.28475 21.9558 6.81463Z" fill="#FAF692"/>
<path d="M21.9559 6.81449C23.4503 8.28474 22.9286 10.9044 23.5893 12.565C25.8454 19.1975 27.3511 25.7583 28.8286 32.3177C29.1724 32.3154 29.4033 32.2671 29.434 32.1255C29.5017 31.8173 28.8152 27.604 28.2907 26.1315C27.7662 24.6589 26.8749 19.6658 26.478 17.9636C26.478 17.9636 25.3536 13.0615 24.8983 11.9746C24.4431 10.8876 24.1586 9.72666 23.5648 7.86842C23.0877 6.37316 22.7988 4.86005 21.9647 4.76891C21.7811 4.7493 21.322 4.69777 20.7149 4.63351C21.1229 5.30575 21.4782 6.05316 21.9559 6.81449Z" fill="#BF9775"/>
<path d="M19.06 27.0437C18.67 25.4072 18.5386 23.4398 18.446 21.5649C18.2509 20.7479 17.6644 20.2473 17.1987 19.4062C15.8728 15.685 14.9307 12.7077 14.1506 9.4347C13.4402 7.6458 12.8506 5.7576 12.1546 3.89153C11.5451 3.82463 11.1472 3.7813 11.1472 3.7813L11.9653 7.64196L18.8918 31.9414C18.8918 31.9414 19.2074 31.9403 19.6793 31.9422C20.6222 31.1442 19.3854 28.7397 19.06 27.0437Z" fill="#685E08"/>
<path d="M4.03981 20.6371C4.03981 20.6371 13.2859 26.9948 16.4564 28.7358C20.0084 30.6851 20.7634 31.3452 20.7634 31.3452C20.7634 31.3452 22.3856 32.5833 22.4356 31.8846C22.4675 31.4288 22.4734 30.3056 22.0696 28.8795C21.8535 28.1192 21.406 27.1282 21.3857 26.1594C21.371 25.4725 21.1979 24.3374 20.7655 23.0631C20.2907 21.6685 19.8833 20.0688 19.4988 18.3748C18.9437 15.9354 17.6687 13.813 17.351 12.7936C16.6013 10.3943 14.545 3.86522 14.545 3.86522C14.545 3.86522 10.3992 8.68672 7.89913 12.7618C5.39905 16.837 4.03981 20.6371 4.03981 20.6371Z" fill="#683608"/>
<path opacity="0.61" d="M13.8455 18.6461C13.8003 19.4959 13.9563 20.2757 14.2453 20.8713C14.2395 20.9313 14.2338 20.9914 14.2304 21.054C14.1729 22.1344 14.4394 23.1059 14.8965 23.7229C14.866 23.8621 14.8428 24.0092 14.8345 24.1646C14.7885 25.0294 14.9894 25.7863 15.4959 25.8127C15.9999 25.8389 16.4974 25.4098 16.5458 24.5477C17.3393 24.1466 18.1382 22.7303 18.2141 21.304C18.2593 20.4543 18.0415 19.6285 17.7526 19.0329C17.7583 18.9728 17.7641 18.9128 17.7674 18.8502C17.8632 17.0504 17.0633 15.5459 15.9786 15.4895C14.899 15.4333 13.9413 16.8464 13.8455 18.6461Z" fill="#FAF692"/>
<path d="M13.0356 15.9772C13.652 15.4337 14.7702 15.2958 15.6251 15.6218C16.1958 15.84 16.7222 16.2168 16.9725 16.7199C17.5123 17.8087 17.4196 19.214 17.4942 19.4014C16.4104 18.508 13.0329 15.9796 13.0356 15.9772Z" fill="#D9C1A5"/>
<path d="M11.8798 17.1137C14.4221 13.0156 17.3636 19.1107 17.3634 19.1132C17.8628 20.6247 17.8337 21.5557 17.3859 22.837C17.0352 23.8342 16.3476 24.1252 15.6962 24.3628C15.3677 22.6767 15.6767 20.7749 14.8884 19.1504C14.5766 18.2117 13.4859 16.7247 11.8798 17.1137Z" fill="#FDE9D2"/>
<path d="M11.7922 17.1216C11.847 17.1043 11.8871 17.0738 11.8871 17.0738C13.4932 16.6848 14.5803 18.1916 14.8895 19.1302C15.6779 20.7547 15.4309 22.5994 15.7593 24.2855C15.7274 24.3065 15.7004 24.3327 15.6783 24.3617C15.1395 23.0141 14.8385 21.5833 14.4022 20.0449C13.7873 18.7763 13.0253 17.7161 11.7922 17.1216Z" fill="#EED4B5"/>
<path d="M12.5139 24.5315C12.5164 24.5211 12.5168 24.5132 12.5192 24.5028C12.5207 24.5108 12.5239 24.5215 12.5254 24.5295C12.5215 24.5319 12.5177 24.5317 12.5139 24.5315Z" fill="#FBE2C5"/>
<path d="M12.6447 24.5308C12.5404 23.6959 12.8106 22.6668 12.8252 21.9587C12.8557 20.4698 11.593 18.2148 9.43703 18.7637C8.81122 18.809 8.08574 19.3293 7.71785 20.0718C7.64424 20.1534 7.57535 20.2428 7.51144 20.335C8.44803 17.101 10.8638 17.0206 11.7821 17.1186C11.8826 17.1591 13.3953 17.6575 14.4022 20.045C14.6744 21.0043 14.8786 21.9876 15.1874 22.9337C15.4367 23.6957 15.9986 24.3709 15.5114 25.1851C15.1904 25.7214 14.5024 26.0199 13.8805 25.8946C13.0378 25.725 12.7252 25.1885 12.6447 24.5308Z" fill="#FBE2C5"/>
<path d="M9.00419 19.4223C8.65663 19.349 8.12371 19.6254 7.72026 20.0719C8.08801 19.3319 8.81363 18.8092 9.43944 18.7638C11.5954 18.2149 12.8581 20.4699 12.8276 21.9588C12.8895 22.8217 12.6901 23.676 12.5229 24.5043C11.8277 22.4296 11.5213 20.1364 9.00419 19.4223Z" fill="#EED4B5"/>
<path d="M10.975 24.381C10.6368 24.2277 10.3486 23.9563 10.1263 23.5049C9.6357 22.5041 9.86887 21.3524 9.4908 20.3098C9.10802 19.2593 7.8885 20.0002 7.51205 20.325C7.55305 20.1813 7.60473 20.1262 7.69571 20.0555C8.09916 19.609 8.65431 19.3488 9.002 19.4197C11.5217 20.1339 11.8255 22.427 12.5181 24.5015C12.515 24.5114 12.5146 24.5189 12.5115 24.5288C11.9365 24.5844 11.4134 24.5798 10.975 24.381Z" fill="#FDF2E6"/>
<g opacity="0.2">
<path opacity="0.2" d="M0.738725 17.5217L1.54972 17.5639C1.60548 16.5161 2.70302 15.8015 3.06443 15.5664C3.24789 15.4453 3.50027 15.2825 3.55058 14.9156C3.57177 14.7583 3.58812 14.5958 3.59759 14.4178C3.61133 14.1597 3.61148 13.9158 3.61136 13.6771C3.61004 13.4608 3.61061 13.2573 3.62101 13.0617C3.64956 12.5253 3.75115 12.1108 4.16336 11.6924C4.27452 11.5801 4.50416 11.4588 4.726 11.3396C4.93989 11.2251 5.15904 11.1083 5.37224 10.9585C5.73485 10.7009 5.97882 10.4069 6.11262 10.062C6.1808 9.88957 6.21921 9.69802 6.23001 9.49499C6.24682 9.17915 6.19389 8.87226 6.14676 8.60085C6.11354 8.40558 6.07803 8.20516 6.0851 8.07231C6.0867 8.04223 6.09019 8.02482 6.09059 8.0173C6.21273 7.50586 6.46693 7.21243 6.74106 6.93009C7.18086 6.47539 7.65165 6.3541 8.1487 6.2216C8.32304 6.17537 8.49994 6.12928 8.67509 6.06801C8.9967 5.95404 9.45695 5.7417 9.73877 5.21846C9.9805 4.77357 10.1101 4.3153 10.1365 3.81899C10.1542 3.48561 10.1243 3.17991 10.0977 2.90958C10.0761 2.68726 10.054 2.47748 10.0638 2.29199C10.076 2.06389 10.1282 1.8052 10.421 1.46099C10.8424 0.967632 11.1632 0.916456 13.1222 1.60906C13.3287 1.68263 13.5452 1.75925 13.7696 1.83376C13.8494 1.87562 13.9402 1.90548 14.0319 1.91779L16.6569 2.29313L20.504 2.84265C20.8401 2.8903 21.168 2.89982 21.483 2.90867C21.8724 2.91887 22.2412 2.93051 22.5448 3.01166C22.8887 3.10496 23.2667 3.56952 23.4045 4.06683C24.274 7.20374 25.2043 10.4016 26.1694 13.5737C26.4641 14.5442 26.6034 15.4462 26.7324 16.5891C26.8142 17.3172 27.0284 18.0171 27.2334 18.6964C27.3231 18.9876 27.4059 19.2634 27.4785 19.5386C28.0128 21.5496 28.5581 23.6919 28.862 25.8392C28.888 26.0265 28.9402 26.346 29.0059 26.7515C29.1581 27.6995 29.4493 29.5068 29.5226 30.3954C29.3921 30.3886 29.2492 30.3737 29.1248 30.3496C29.0867 30.3426 29.051 30.3382 29.0126 30.3362L24.1342 30.1252C24.1239 30.1246 24.1137 30.1241 24.1035 30.1236C23.7829 30.122 23.4803 30.1188 23.2264 30.1182C23.0212 30.1175 22.8443 30.1159 22.7108 30.1165C22.5725 30.064 22.4244 30.0513 22.2794 30.0764C22.0832 30.0034 21.683 29.7614 21.3625 29.5185C21.1806 29.3683 20.2291 28.6401 16.939 26.8326C13.9852 25.211 5.62398 19.485 4.681 18.8377C4.67844 18.8376 4.67857 18.8351 4.67602 18.835L4.67359 18.8323L4.65379 18.8187L4.63655 18.8053C4.42859 18.6637 4.1508 18.6292 3.90833 18.702L3.90578 18.7019C3.47013 18.8376 2.52802 18.8489 1.98122 18.5666C1.72654 18.4352 1.65968 18.2935 1.62893 18.1964C1.5611 17.9767 1.53393 17.7641 1.54487 17.5586L0.738992 17.5166L0.738725 17.5217ZM0.738725 17.5217C0.723785 17.8024 0.756386 18.1057 0.857128 18.4302C1.24366 19.6995 3.32273 19.7273 4.1601 19.4667L4.2203 19.4924C5.16328 20.1397 13.5567 25.8875 16.5479 27.5286C20.0999 29.4779 20.8549 30.1381 20.8549 30.1381C20.8549 30.1381 22.0604 31.0579 22.4224 30.8606L22.4375 30.9141C22.4375 30.9141 22.7531 30.913 23.225 30.9149C23.479 30.9155 23.779 30.9186 24.0996 30.9202L28.9726 31.136C28.9726 31.136 30.1642 31.3538 30.3256 30.9726C30.3373 30.9456 30.345 30.8982 30.3483 30.8355C30.3913 30.0284 29.7775 26.5202 29.6655 25.7327C29.3597 23.5727 28.8236 21.451 28.2638 19.3407C28.0161 18.4028 27.6457 17.456 27.5374 16.5028C27.4137 15.4054 27.2688 14.4151 26.946 13.3476C25.9856 10.1834 25.0684 7.02639 24.1877 3.85874C24.0005 3.1829 23.4707 2.43646 22.7601 2.24366C22.0798 2.05996 21.318 2.15355 20.6178 2.05429C18.4613 1.74604 16.3022 1.43767 14.1457 1.12942C14.141 1.12164 14.1361 1.11636 14.1336 1.11622C12.0896 0.429259 10.8146 -0.24535 9.794 0.950798C9.3946 1.41765 9.26946 1.84096 9.24758 2.25205C9.2209 2.75337 9.34892 3.24012 9.32024 3.77904C9.30263 4.10992 9.22498 4.46029 9.01715 4.84662C8.8833 5.09604 8.66349 5.22536 8.39411 5.32195C7.79262 5.53699 6.93078 5.58264 6.14929 6.38403C5.8399 6.70223 5.4662 7.12015 5.29704 7.84029C5.28347 7.90242 5.27488 7.96733 5.27142 8.0325C5.2478 8.47617 5.4429 9.00411 5.41889 9.4553C5.41289 9.5681 5.39436 9.67522 5.35307 9.77613C5.26674 10.0004 5.09623 10.1674 4.89353 10.3127C4.47748 10.6103 3.91059 10.802 3.57979 11.1367C2.99142 11.732 2.84511 12.3603 2.81016 13.017C2.78681 13.4557 2.81141 13.9094 2.78673 14.3731C2.77913 14.516 2.76627 14.6611 2.74575 14.8059C2.73716 14.8708 0.8301 15.8046 0.738725 17.5217ZM4.21289 19.487C4.19781 19.4812 4.1803 19.4728 4.1601 19.4667C4.16535 19.4644 4.17047 19.4647 4.17572 19.4625C4.18568 19.468 4.19794 19.4787 4.21289 19.487Z" fill="#424242"/>
</g>
</svg>
