<svg width="31" height="33" viewBox="0 0 31 33" fill="none" xmlns="http://www.w3.org/2000/svg">
<path d="M12.0051 7.27788C12.0156 7.37768 12.0542 7.47192 12.1158 7.54826C12.1773 7.62461 12.2591 7.6795 12.3503 7.70575C15.2059 8.5436 17.0908 10.2774 18.2641 12.8392C18.3111 12.942 18.3898 13.0246 18.487 13.0733C18.5842 13.122 18.694 13.1339 18.7981 13.1069C22.197 12.2249 25.1647 13.0308 27.8366 16.3254C27.8839 16.384 27.9433 16.4301 28.0101 16.4602C28.0769 16.4903 28.1493 16.5036 28.2215 16.4989C28.2938 16.4943 28.364 16.4719 28.4266 16.4335C28.4893 16.3951 28.5426 16.3417 28.5824 16.2776C29.6049 14.6253 30.1733 12.6268 30.1083 10.4966C29.9406 4.9988 25.6069 0.656849 20.44 0.809941C16.6047 0.923583 13.3746 3.47566 12.0358 7.03767C12.0071 7.11373 11.9965 7.19625 12.005 7.27788L12.0051 7.27788Z" fill="#4A1F19"/>
<path d="M18.825 9.33632C18.8501 10.1559 19.5037 10.8108 20.274 10.788C21.0443 10.7652 21.6603 10.0727 21.6353 9.25306C21.6102 8.43344 20.953 7.77497 20.1827 7.7978C19.4125 7.82062 18.8 8.5167 18.825 9.33632Z" fill="#9A605C"/>
<path d="M17.6047 11.6116C17.8447 11.9969 18.0645 12.4044 18.2627 12.8372C18.3098 12.9401 18.3886 13.0228 18.4859 13.0715C18.5832 13.1202 18.6932 13.132 18.7973 13.1049C22.1965 12.2227 25.1641 13.0286 27.8362 16.3238C27.8835 16.3825 27.9429 16.4288 28.0097 16.459C28.0766 16.4892 28.149 16.5026 28.2214 16.498C28.2937 16.4934 28.364 16.471 28.4267 16.4325C28.4894 16.394 28.5428 16.3406 28.5827 16.2764C28.8247 15.8853 29.0393 15.4733 29.2281 15.0463C27.2656 12.3544 24.1678 10.6514 20.7424 10.7529C19.9199 10.7773 19.1093 10.8677 18.2762 11.1173C18.0054 11.198 17.7782 11.3802 17.6047 11.6116V11.6116Z" fill="#4A1F19"/>
<path d="M13.0129 25.696L13.0129 25.6942C13.0129 25.693 13.013 25.6919 13.0131 25.6909C17.9256 24.3317 21.1424 18.2705 18.6987 12.5841L18.6984 12.5835C18.6974 12.5811 18.6965 12.5774 18.6965 12.5731C18.6965 12.5717 18.6966 12.5703 18.6968 12.5691C19.3736 12.3683 20.0463 12.2891 20.7873 12.2671C25.6491 12.1231 29.7799 16.2171 29.9401 21.4683C30.1003 26.7198 26.2264 31.0544 21.3649 31.1985C17.702 31.307 14.4636 29.0901 13.0146 25.7063C13.0137 25.7038 13.0128 25.7002 13.0129 25.696Z" fill="#F2EDDC" stroke="#BF9775"/>
<path d="M12.3493 7.70661C15.2049 8.54446 17.0897 10.2782 18.2629 12.8399C18.3599 13.0519 18.5828 13.1635 18.7974 13.1076C19.3489 12.9645 19.8878 12.8708 20.4172 12.82C19.18 9.20695 16.2356 6.4697 12.6621 5.68594C12.4226 6.11732 12.2117 6.56819 12.0351 7.03799L12.3493 7.70661Z" fill="#311A12"/>
<path d="M24.4731 10.1613C24.4981 10.9809 25.1554 11.6393 25.9257 11.6165C26.696 11.5937 27.3084 10.8976 27.2834 10.078C27.2584 9.25837 26.6047 8.60348 25.8344 8.62631C25.0641 8.64913 24.4481 9.34164 24.4731 10.1613Z" fill="#F6F5EE"/>
<path d="M15.8936 5.43398C15.9187 6.2536 16.5723 6.90849 17.3426 6.88567C18.1129 6.86285 18.7289 6.17034 18.7039 5.35072C18.6789 4.53109 18.0217 3.87263 17.2514 3.89545C16.4811 3.91827 15.8686 4.61435 15.8936 5.43398Z" fill="#F6F5EE"/>
<path d="M21.5152 5.26626C21.5402 6.08588 22.1939 6.74077 22.9641 6.71794C23.7344 6.69512 24.3469 6.00272 24.3219 5.1831C24.2969 4.36347 23.6432 3.7049 22.8729 3.72773C22.1026 3.75055 21.4902 4.44663 21.5152 5.26626Z" fill="#9A605C"/>
<path d="M25.291 6.15117C25.2954 6.28271 25.3486 6.40728 25.4388 6.49771C25.5291 6.58814 25.6491 6.63708 25.7728 6.63388C25.8343 6.63231 25.8949 6.61787 25.951 6.59136C26.0072 6.56486 26.0579 6.52682 26.1001 6.47942C26.1424 6.43201 26.1754 6.37618 26.1973 6.31509C26.2192 6.25401 26.2295 6.18888 26.2277 6.12342C26.226 6.05765 26.212 5.99285 26.1866 5.93274C26.1612 5.87263 26.1249 5.81841 26.0797 5.7732C26.0346 5.728 25.9816 5.6927 25.9237 5.66935C25.8658 5.646 25.8042 5.63505 25.7424 5.63714C25.6809 5.63919 25.6204 5.65411 25.5644 5.68106C25.5084 5.708 25.458 5.74644 25.4161 5.79418C25.3742 5.84191 25.3416 5.89801 25.3201 5.95926C25.2987 6.02052 25.2888 6.08573 25.291 6.15117Z" fill="#D0AD9B"/>
<path d="M22.5408 8.22735C22.5452 8.35888 22.5983 8.48345 22.6886 8.57388C22.7788 8.66431 22.8989 8.71326 23.0225 8.71005C23.0841 8.70848 23.1446 8.69404 23.2008 8.66754C23.2569 8.64104 23.3076 8.603 23.3499 8.55559C23.3921 8.50819 23.4251 8.45235 23.447 8.39127C23.4689 8.33018 23.4793 8.26505 23.4775 8.19959C23.4757 8.13382 23.4618 8.06902 23.4364 8.00891C23.411 7.9488 23.3747 7.89458 23.3296 7.84937C23.2844 7.80417 23.2314 7.76887 23.1735 7.74552C23.1155 7.72217 23.0539 7.71122 22.9921 7.71332C22.9306 7.71536 22.8701 7.73029 22.8142 7.75723C22.7582 7.78418 22.7079 7.82261 22.6659 7.87035C22.624 7.91808 22.5914 7.97418 22.5699 8.03544C22.5484 8.09669 22.5385 8.1619 22.5408 8.22735V8.22735Z" fill="#D0AD9B"/>
<path d="M19.5801 3.32989C19.5845 3.46142 19.6376 3.58599 19.7279 3.67642C19.8181 3.76685 19.9381 3.8158 20.0618 3.81259C20.1233 3.81102 20.1839 3.79658 20.24 3.77008C20.2962 3.74358 20.3469 3.70553 20.3891 3.65813C20.4314 3.61073 20.4644 3.55489 20.4863 3.49381C20.5082 3.43272 20.5185 3.36759 20.5167 3.30213C20.515 3.23636 20.501 3.17156 20.4756 3.11145C20.4502 3.05134 20.4139 2.99712 20.3688 2.95192C20.3236 2.90671 20.2706 2.87141 20.2127 2.84806C20.1548 2.82471 20.0932 2.81376 20.0314 2.81586C19.9699 2.8179 19.9094 2.83283 19.8535 2.85977C19.7975 2.88671 19.7471 2.92515 19.7052 2.97289C19.6633 3.02062 19.6307 3.07672 19.6092 3.13798C19.5877 3.19923 19.5778 3.26444 19.5801 3.32989V3.32989Z" fill="#D0AD9B"/>
<path d="M12.5535 25.9023C12.7632 26.3925 13.012 26.8574 13.2899 27.2986C17.8721 26.02 21.1993 21.5007 21.0391 16.2495C20.9908 14.6656 20.627 13.1678 20.0188 11.8191C19.518 11.867 19.0291 11.9499 18.5355 12.0978C18.2597 12.1805 18.1191 12.5055 18.2388 12.7835C20.5705 18.2095 17.4799 23.9501 12.862 25.2153L12.5535 25.9023Z" fill="#BF9775"/>
<path d="M1.23971 16.8378C1.40744 22.3354 5.74099 26.6771 10.9076 26.5241C16.0743 26.371 20.1387 21.7804 19.971 16.2828C19.8033 10.7853 15.4663 6.44362 10.2996 6.5967C5.133 6.74979 1.07199 11.3403 1.23971 16.8378Z" fill="#8A1909"/>
<path d="M14.4122 18.4413C14.4372 19.2609 15.0943 19.9157 15.8646 19.8929C16.6349 19.8701 17.2474 19.1777 17.2224 18.358C17.1974 17.5384 16.5438 16.8835 15.7735 16.9064C15.0032 16.9292 14.3872 17.6217 14.4122 18.4413V18.4413Z" fill="#F6F5EE"/>
<path d="M3.95799 13.766C3.983 14.5856 4.63676 15.2442 5.40704 15.2214C6.17733 15.1985 6.7932 14.5024 6.7682 13.6827C6.74319 12.8631 6.0861 12.2083 5.31581 12.2312C4.54553 12.254 3.93298 12.9464 3.95799 13.766Z" fill="#F6F5EE"/>
<path d="M6.04331 20.6857C6.06831 21.5053 6.72196 22.1602 7.49227 22.1374C8.26256 22.1146 8.87858 21.422 8.85357 20.6024C8.82856 19.7828 8.17133 19.1243 7.40104 19.1472C6.63073 19.17 6.0183 19.8661 6.04331 20.6857Z" fill="#F6F5EE"/>
<path d="M10.4223 10.5807C10.4474 11.4003 11.1046 12.0588 11.8749 12.036C12.6452 12.0131 13.2576 11.3171 13.2326 10.4974C13.2076 9.6778 12.554 9.02291 11.7836 9.04574C11.0134 9.06856 10.3973 9.76107 10.4223 10.5807Z" fill="#F6F5EE"/>
<path d="M9.63987 15.5914C9.66488 16.4111 10.3186 17.0696 11.089 17.0468C11.8592 17.024 12.4717 16.3279 12.4467 15.5083C12.4217 14.6887 11.768 14.0338 10.9977 14.0566C10.2274 14.0794 9.61487 14.7718 9.63987 15.5914Z" fill="#F6F5EE"/>
<path d="M9.85009 22.5672C9.85453 22.6987 9.90766 22.8233 9.99791 22.9137C10.0882 23.0042 10.2082 23.0531 10.3318 23.0499C10.3934 23.0483 10.4539 23.0339 10.5101 23.0074C10.5663 22.9809 10.6169 22.9428 10.6592 22.8954C10.7014 22.848 10.7344 22.7922 10.7563 22.7311C10.7782 22.67 10.7886 22.6049 10.7868 22.5394C10.7851 22.4737 10.7711 22.4089 10.7457 22.3488C10.7203 22.2886 10.684 22.2344 10.6389 22.1892C10.5937 22.144 10.5407 22.1087 10.4828 22.0854C10.4249 22.062 10.3632 22.0511 10.3014 22.0532C10.2399 22.0552 10.1795 22.0701 10.1235 22.0971C10.0675 22.124 10.0171 22.1625 9.97523 22.2102C9.93332 22.2579 9.90068 22.314 9.87921 22.3753C9.85773 22.4365 9.84785 22.5017 9.85009 22.5672Z" fill="#F6F5EE"/>
<path d="M11.6023 18.5262C11.6067 18.6577 11.6599 18.7823 11.7501 18.8727C11.8404 18.9631 11.9604 19.0121 12.0841 19.0089C12.1456 19.0073 12.2061 18.9929 12.2623 18.9664C12.3185 18.9399 12.3691 18.9018 12.4114 18.8544C12.4536 18.807 12.4866 18.7512 12.5085 18.6901C12.5304 18.629 12.5408 18.5639 12.539 18.4984C12.5373 18.4326 12.5233 18.3678 12.4979 18.3077C12.4725 18.2476 12.4362 18.1934 12.3911 18.1482C12.346 18.103 12.2929 18.0677 12.235 18.0443C12.1771 18.021 12.1155 18.01 12.0537 18.0121C11.9922 18.0142 11.9317 18.0291 11.8757 18.0561C11.8197 18.083 11.7693 18.1214 11.7274 18.1692C11.6855 18.2169 11.6529 18.273 11.6314 18.3343C11.6099 18.3955 11.6 18.4607 11.6023 18.5262Z" fill="#F6F5EE"/>
<path d="M4.07812 17.7537C4.08255 17.8852 4.13571 18.0098 4.22597 18.1002C4.31623 18.1907 4.43627 18.2396 4.55992 18.2364C4.62144 18.2349 4.68201 18.2204 4.73818 18.1939C4.79434 18.1674 4.84501 18.1294 4.88726 18.082C4.92951 18.0346 4.96252 17.9787 4.98442 17.9176C5.00632 17.8565 5.01669 17.7914 5.0149 17.726C5.01314 17.6602 4.99915 17.5954 4.97376 17.5353C4.94836 17.4752 4.91205 17.4209 4.86693 17.3757C4.82181 17.3305 4.76877 17.2952 4.71086 17.2719C4.65295 17.2485 4.5913 17.2376 4.52951 17.2397C4.468 17.2417 4.40753 17.2567 4.35156 17.2836C4.29558 17.3105 4.24521 17.349 4.20329 17.3967C4.16137 17.4444 4.12874 17.5005 4.10726 17.5618C4.08579 17.6231 4.07588 17.6883 4.07812 17.7537V17.7537Z" fill="#F6F5EE"/>
<path d="M7.67455 12.6607C7.67899 12.7922 7.73215 12.9168 7.8224 13.0072C7.91266 13.0977 8.03269 13.1466 8.15634 13.1434C8.21786 13.1418 8.27843 13.1274 8.33459 13.1009C8.39075 13.0744 8.4414 13.0363 8.48365 12.9889C8.5259 12.9415 8.55893 12.8857 8.58083 12.8246C8.60273 12.7635 8.61307 12.6984 8.61128 12.6329C8.60952 12.5672 8.59556 12.5024 8.57016 12.4423C8.54477 12.3821 8.50846 12.3279 8.46334 12.2827C8.41822 12.2375 8.36518 12.2022 8.30727 12.1789C8.24936 12.1555 8.18772 12.1446 8.12593 12.1467C8.06442 12.1487 8.00396 12.1636 7.94798 12.1906C7.89201 12.2175 7.84164 12.256 7.79972 12.3037C7.75781 12.3514 7.72517 12.4075 7.7037 12.4688C7.68222 12.53 7.67231 12.5953 7.67455 12.6607Z" fill="#F6F5EE"/>
<path d="M14.2615 13.461C14.2659 13.5925 14.3191 13.7171 14.4093 13.8075C14.4996 13.8979 14.6196 13.9469 14.7433 13.9437C14.8048 13.9421 14.8654 13.9277 14.9215 13.9012C14.9777 13.8747 15.0284 13.8366 15.0706 13.7892C15.1129 13.7418 15.1459 13.686 15.1678 13.6249C15.1897 13.5638 15.2 13.4987 15.1983 13.4332C15.1965 13.3675 15.1825 13.3027 15.1571 13.2425C15.1317 13.1824 15.0954 13.1282 15.0503 13.083C15.0051 13.0378 14.9521 13.0025 14.8942 12.9792C14.8363 12.9558 14.7746 12.9449 14.7128 12.947C14.6513 12.949 14.5909 12.9639 14.5349 12.9909C14.479 13.0178 14.4286 13.0562 14.3866 13.104C14.3447 13.1517 14.3121 13.2078 14.2906 13.2691C14.2692 13.3303 14.2592 13.3955 14.2615 13.461Z" fill="#F6F5EE"/>
<path d="M23.341 19.1696C22.8755 19.1834 22.4246 18.7762 22.4071 18.2029C22.3896 17.6296 22.8149 17.1964 23.2804 17.1826L23.2804 17.1826C23.7459 17.1688 24.1969 17.576 24.2144 18.1493C24.2319 18.7226 23.8066 19.1558 23.3411 19.1696L23.341 19.1696Z" fill="#F6F5EE" stroke="#BF9775"/>
<path d="M17.4643 26.3256C17.4893 27.1452 18.1431 27.8038 18.9134 27.7809C19.6837 27.7581 20.2996 27.0619 20.2746 26.2423C20.2496 25.4227 19.5925 24.7679 18.8222 24.7907C18.0519 24.8135 17.4393 25.5059 17.4643 26.3256Z" fill="#5E3614"/>
<path d="M23.5825 27.1415C23.1185 27.1553 22.666 26.7461 22.6484 26.1711C22.631 25.5978 23.0563 25.1646 23.5217 25.1508L23.5217 25.1508C23.9872 25.137 24.4381 25.5443 24.4556 26.1176C24.4732 26.6925 24.0464 27.1278 23.5825 27.1415L23.5825 27.1415Z" fill="#F6F5EE" stroke="#BF9775"/>
<path d="M25.7726 22.0917C25.7976 22.9113 26.4547 23.5661 27.225 23.5433C27.9953 23.5205 28.6078 22.8281 28.5828 22.0084C28.5578 21.1888 27.904 20.5302 27.1337 20.5531C26.3635 20.5759 25.7475 21.2721 25.7726 22.0917Z" fill="#5E3614"/>
<path d="M23.02 22.1741C23.0244 22.3057 23.0776 22.4302 23.1679 22.5207C23.2581 22.6111 23.3782 22.66 23.5018 22.6568C23.5633 22.6553 23.6239 22.6408 23.6801 22.6143C23.7362 22.5878 23.7869 22.5498 23.8291 22.5024C23.8714 22.455 23.9044 22.3991 23.9263 22.338C23.9482 22.277 23.9585 22.2118 23.9567 22.1464C23.955 22.0806 23.941 22.0158 23.9156 21.9557C23.8902 21.8956 23.8539 21.8414 23.8088 21.7962C23.7637 21.7509 23.7106 21.7157 23.6527 21.6923C23.5948 21.6689 23.5332 21.658 23.4714 21.6601C23.4099 21.6621 23.3494 21.6771 23.2935 21.704C23.2375 21.7309 23.1871 21.7694 23.1452 21.8171C23.1033 21.8649 23.0707 21.921 23.0492 21.9822C23.0277 22.0435 23.0178 22.1087 23.02 22.1741V22.1741Z" fill="#D0AD9B"/>
<path d="M21.8157 15.2298C21.8201 15.3613 21.8733 15.4859 21.9635 15.5763C22.0538 15.6667 22.1738 15.7157 22.2975 15.7125C22.359 15.7109 22.4196 15.6965 22.4757 15.67C22.5319 15.6435 22.5825 15.6054 22.6248 15.558C22.667 15.5106 22.7001 15.4548 22.722 15.3937C22.7439 15.3326 22.7542 15.2675 22.7524 15.202C22.7506 15.1363 22.7367 15.0715 22.7113 15.0114C22.6859 14.9512 22.6496 14.897 22.6045 14.8518C22.5593 14.8066 22.5063 14.7713 22.4484 14.748C22.3904 14.7246 22.3288 14.7137 22.267 14.7158C22.2055 14.7178 22.1451 14.7327 22.0891 14.7597C22.0332 14.7866 21.9828 14.8251 21.9408 14.8728C21.8989 14.9205 21.8663 14.9766 21.8448 15.0379C21.8234 15.0991 21.8134 15.1643 21.8157 15.2298V15.2298Z" fill="#D0AD9B"/>
<path d="M20.365 29.2332C20.3694 29.3647 20.4225 29.4893 20.5128 29.5797C20.6031 29.6702 20.7231 29.7191 20.8467 29.7159C20.9082 29.7143 20.9688 29.6999 21.025 29.6734C21.0812 29.6469 21.1318 29.6089 21.1741 29.5615C21.2163 29.514 21.2493 29.4582 21.2712 29.3971C21.2931 29.336 21.3035 29.2709 21.3017 29.2055C21.2999 29.1397 21.2859 29.0749 21.2605 29.0148C21.2351 28.9547 21.1988 28.9004 21.1537 28.8552C21.1086 28.81 21.0556 28.7747 20.9977 28.7514C20.9398 28.728 20.8781 28.7171 20.8163 28.7192C20.7548 28.7212 20.6944 28.7361 20.6384 28.7631C20.5824 28.79 20.532 28.8285 20.4901 28.8762C20.4482 28.9239 20.4156 28.98 20.3941 29.0413C20.3726 29.1026 20.3627 29.1678 20.365 29.2332V29.2332Z" fill="#D0AD9B"/>
<path d="M27.6548 18.5755C27.6592 18.707 27.7123 18.8316 27.8026 18.922C27.8929 19.0125 28.0129 19.0614 28.1366 19.0582C28.1981 19.0566 28.2586 19.0422 28.3148 19.0157C28.371 18.9892 28.4216 18.9511 28.4639 18.9037C28.5061 18.8563 28.5391 18.8005 28.561 18.7394C28.5829 18.6783 28.5933 18.6132 28.5915 18.5477C28.5897 18.482 28.5757 18.4172 28.5503 18.357C28.5249 18.2969 28.4886 18.2427 28.4435 18.1975C28.3984 18.1523 28.3454 18.117 28.2875 18.0937C28.2296 18.0703 28.1679 18.0594 28.1062 18.0615C28.0446 18.0635 27.9842 18.0784 27.9282 18.1054C27.8722 18.1323 27.8218 18.1708 27.7799 18.2185C27.738 18.2662 27.7054 18.3223 27.6839 18.3836C27.6624 18.4448 27.6525 18.51 27.6548 18.5755Z" fill="#D0AD9B"/>
</svg>
