<svg width="47" height="41" viewBox="0 0 47 41" fill="none" xmlns="http://www.w3.org/2000/svg">
<path d="M36.074 15.4225C35.9314 15.435 35.7974 15.4862 35.6897 15.5694C35.5819 15.6525 35.5054 15.7638 35.4702 15.8887C34.3433 19.7991 31.9088 22.3568 28.2707 23.9192C28.1247 23.9819 28.0084 24.0885 27.9411 24.2212C27.8739 24.3539 27.8597 24.5047 27.9011 24.6484C29.2507 29.3401 28.1725 33.4052 23.5232 37.014C23.4406 37.078 23.376 37.1587 23.3346 37.25C23.2932 37.3412 23.2761 37.4405 23.2846 37.54C23.293 37.6394 23.3269 37.7365 23.3835 37.8233C23.4401 37.9102 23.5179 37.9846 23.6107 38.0407C26.0026 39.4796 28.8787 40.3011 31.9272 40.2541C39.795 40.1329 45.9015 34.2595 45.5504 27.151C45.2898 21.8744 41.5532 17.3816 36.4187 15.4696C36.3091 15.4286 36.1907 15.4124 36.074 15.4224L36.074 15.4225Z" fill="#4A1F19"/>
<path d="M33.301 24.76C32.1281 24.7781 31.2071 25.664 31.2594 26.7237C31.3117 27.7835 32.319 28.6444 33.492 28.6263C34.6649 28.6082 35.591 27.7175 35.5386 26.6578C35.4863 25.598 34.474 24.742 33.301 24.76Z" fill="#9A605C"/>
<path d="M30.0117 23.0363C29.4662 23.3588 28.8884 23.6529 28.2737 23.9169C28.1276 23.9796 28.0112 24.0863 27.9439 24.2192C27.8766 24.352 27.8626 24.5029 27.9041 24.6467C29.2539 29.3388 28.1758 33.4039 23.5257 37.0129C23.4428 37.0768 23.3781 37.1576 23.3365 37.2489C23.295 37.3402 23.2777 37.4396 23.2861 37.5392C23.2946 37.6388 23.3285 37.7359 23.3851 37.8229C23.4418 37.9099 23.5197 37.9843 23.6127 38.0405C24.1788 38.381 24.7742 38.6845 25.3905 38.9525C29.1948 36.3073 31.5541 32.0811 31.3214 27.3684C31.2655 26.2368 31.1154 25.1203 30.7367 23.9696C30.6142 23.5956 30.3476 23.2795 30.0117 23.0363Z" fill="#4A1F19"/>
<path d="M9.72853 16.2536L9.73029 16.2537C9.78898 16.2551 9.84024 16.274 9.87665 16.2999C9.91252 16.3254 9.92896 16.3534 9.93519 16.3738L10.4136 16.2434L9.93488 16.3728C11.9604 23.066 20.596 27.5485 28.5532 24.3503L28.5538 24.3501C28.5857 24.3372 28.6222 24.3302 28.6602 24.3308C28.6982 24.3313 28.7344 24.3393 28.7657 24.3527C28.7969 24.366 28.8208 24.3835 28.8375 24.4011L29.1952 24.064L28.8375 24.4011C28.854 24.4185 28.863 24.4353 28.8676 24.4492L28.8678 24.4499C29.1841 25.4111 29.3179 26.3603 29.3691 27.397C29.7042 34.1834 23.8615 39.8747 16.2219 39.9924C8.58192 40.1102 2.18139 34.6074 1.84627 27.8212C1.59386 22.7099 4.73093 18.229 9.62094 16.2717C9.65336 16.2591 9.69025 16.2525 9.72853 16.2536Z" fill="#F2EDDC" stroke="#BF9775"/>
<path d="M35.4689 15.8868C34.3421 19.7972 31.9077 22.3547 28.2696 23.9171C27.9685 24.0462 27.8145 24.3505 27.9 24.6468C28.119 25.408 28.2669 26.151 28.3532 26.88C33.4949 25.2506 37.3391 21.2559 38.3702 16.3572C37.7464 16.0193 37.0954 15.7202 36.4182 15.468L35.4689 15.8868Z" fill="#311A12"/>
<path d="M32.2636 32.5119C31.0906 32.53 30.1646 33.4207 30.2169 34.4805C30.2693 35.5403 31.2816 36.3963 32.4545 36.3782C33.6275 36.3602 34.5485 35.4743 34.4962 34.4145C34.4438 33.3548 33.4365 32.4938 32.2636 32.5119Z" fill="#F6F5EE"/>
<path d="M38.8133 20.8062C37.6403 20.8243 36.7193 21.7101 36.7716 22.7699C36.8239 23.8297 37.8312 24.6906 39.0042 24.6725C40.1771 24.6544 41.1032 23.7637 41.0509 22.7039C40.9985 21.6442 39.9862 20.7881 38.8133 20.8062Z" fill="#F6F5EE"/>
<path d="M39.1975 28.5406C38.0246 28.5586 37.1036 29.4445 37.1559 30.5042C37.2082 31.564 38.2153 32.4201 39.3882 32.402C40.5612 32.3839 41.4875 31.498 41.4351 30.4383C41.3828 29.3785 40.3705 28.5225 39.1975 28.5406Z" fill="#9A605C"/>
<path d="M38.0262 33.7151C37.838 33.7186 37.661 33.7892 37.5338 33.9115C37.4067 34.0338 37.3396 34.198 37.3474 34.3681C37.3512 34.4527 37.3734 34.5363 37.4128 34.614C37.4522 34.6918 37.5079 34.7622 37.5769 34.8213C37.6459 34.8803 37.7266 34.9268 37.8147 34.9581C37.9027 34.9895 37.9962 35.005 38.0899 35.0039C38.184 35.0028 38.2765 34.9848 38.3619 34.951C38.4473 34.9173 38.524 34.8685 38.5876 34.8073C38.6512 34.7462 38.7003 34.674 38.7323 34.5948C38.7643 34.5156 38.7784 34.4311 38.7738 34.3461C38.7693 34.2615 38.7464 34.178 38.7064 34.1005C38.6664 34.023 38.61 33.9529 38.5406 33.8943C38.4712 33.8357 38.39 33.7897 38.3018 33.759C38.2135 33.7282 38.1199 33.7134 38.0262 33.7151Z" fill="#D0AD9B"/>
<path d="M34.9828 29.8919C34.7946 29.8954 34.6176 29.966 34.4904 30.0883C34.3632 30.2106 34.2962 30.3747 34.3039 30.5448C34.3077 30.6295 34.33 30.713 34.3693 30.7908C34.4087 30.8685 34.4645 30.939 34.5334 30.998C34.6024 31.0571 34.6832 31.1036 34.7712 31.1349C34.8592 31.1662 34.9528 31.1818 35.0464 31.1806C35.1406 31.1795 35.233 31.1616 35.3184 31.1279C35.4038 31.0942 35.4805 31.0453 35.5441 30.9842C35.6077 30.923 35.6569 30.8507 35.6888 30.7716C35.7208 30.6924 35.7349 30.6079 35.7303 30.5228C35.7258 30.4382 35.7029 30.3547 35.6629 30.2772C35.6229 30.1997 35.5666 30.1297 35.4972 30.0711C35.4277 30.0125 35.3466 29.9665 35.2583 29.9358C35.1701 29.905 35.0764 29.8901 34.9828 29.8919Z" fill="#D0AD9B"/>
<path d="M41.92 25.918C41.7318 25.9215 41.5548 25.9921 41.4276 26.1144C41.3005 26.2367 41.2334 26.4008 41.2412 26.5708C41.245 26.6555 41.2672 26.7391 41.3066 26.8168C41.346 26.8946 41.4017 26.965 41.4707 27.0241C41.5396 27.0831 41.6204 27.1296 41.7085 27.1609C41.7965 27.1923 41.89 27.2078 41.9837 27.2067C42.0778 27.2056 42.1703 27.1876 42.2557 27.1539C42.3411 27.1201 42.4178 27.0713 42.4814 27.0101C42.5449 26.949 42.5941 26.8768 42.6261 26.7976C42.6581 26.7185 42.6722 26.6339 42.6676 26.5489C42.6631 26.4642 42.6402 26.3808 42.6002 26.3033C42.5602 26.2258 42.5038 26.1558 42.4344 26.0972C42.365 26.0386 42.2838 25.9926 42.1956 25.9619C42.1073 25.9311 42.0137 25.9162 41.92 25.918Z" fill="#D0AD9B"/>
<path d="M9.42008 15.8052C8.72353 16.0839 8.06423 16.4167 7.43967 16.7901C9.38726 23.1171 15.9432 27.7826 23.4581 27.6668C25.7247 27.6318 27.8601 27.1613 29.7757 26.3519C29.6944 25.6622 29.5632 24.9881 29.3389 24.3064C29.2134 23.9255 28.7445 23.7257 28.3495 23.8848C20.6397 26.9834 12.3412 22.6189 10.4116 16.2432L9.42008 15.8052Z" fill="#BF9775"/>
<path d="M22.1111 0.42696C14.2437 0.548219 8.13747 6.42133 8.4885 13.5296C8.83952 20.6378 15.5163 26.3186 23.3838 26.1974C31.2512 26.0761 37.3572 20.1982 37.0062 13.09C36.6551 5.98179 29.9786 0.305725 22.1111 0.42696Z" fill="#8A1909"/>
<path d="M20.1516 18.5105C18.9787 18.5286 18.0579 19.4192 18.1102 20.479C18.1626 21.5387 19.1696 22.3949 20.3426 22.3768C21.5155 22.3587 22.4365 21.4729 22.3842 20.4131C22.3319 19.3534 21.3246 18.4924 20.1516 18.5105Z" fill="#F6F5EE"/>
<path d="M26.579 4.2265C25.4061 4.24458 24.4798 5.13054 24.5321 6.19028C24.5844 7.25004 25.597 8.11085 26.7699 8.09277C27.9429 8.07469 28.8637 7.18409 28.8113 6.12432C28.759 5.06458 27.752 4.20843 26.579 4.2265Z" fill="#F6F5EE"/>
<path d="M16.7237 6.95656C15.5507 6.97464 14.6297 7.86051 14.682 8.9203C14.7343 9.98006 15.7416 10.841 16.9146 10.8229C18.0875 10.8048 19.0136 9.9141 18.9613 8.85434C18.9089 7.79455 17.8966 6.93849 16.7237 6.95656Z" fill="#F6F5EE"/>
<path d="M31.3046 13.1796C30.1317 13.1977 29.2056 14.0884 29.2579 15.1482C29.3103 16.208 30.3226 17.064 31.4955 17.046C32.6685 17.0279 33.5895 16.142 33.5372 15.0822C33.4848 14.0225 32.4775 13.1615 31.3046 13.1796Z" fill="#F6F5EE"/>
<path d="M24.11 12.0038C22.9371 12.0219 22.0108 12.9079 22.0631 13.9677C22.1155 15.0274 23.1278 15.8835 24.3007 15.8654C25.4737 15.8474 26.3947 14.9615 26.3423 13.9017C26.29 12.8419 25.283 11.9858 24.11 12.0038Z" fill="#F6F5EE"/>
<path d="M14.1271 12.1536C13.9389 12.1571 13.7618 12.2277 13.6347 12.35C13.5075 12.4723 13.4405 12.6364 13.4482 12.8065C13.452 12.8911 13.4742 12.9747 13.5136 13.0525C13.553 13.1303 13.6088 13.2007 13.6777 13.2597C13.7467 13.3188 13.8275 13.3653 13.9155 13.3966C14.0035 13.428 14.097 13.4435 14.1907 13.4423C14.2848 13.4412 14.3773 13.4233 14.4627 13.3896C14.5481 13.3558 14.6248 13.307 14.6884 13.2458C14.752 13.1847 14.8012 13.1124 14.8331 13.0333C14.8651 12.9541 14.8792 12.8696 14.8746 12.7845C14.8701 12.6999 14.8472 12.6165 14.8072 12.5389C14.7672 12.4614 14.7109 12.3914 14.6414 12.3328C14.572 12.2742 14.4909 12.2282 14.4026 12.1975C14.3144 12.1667 14.2207 12.1518 14.1271 12.1536Z" fill="#F6F5EE"/>
<path d="M19.9579 14.6446C19.7697 14.6481 19.5927 14.7186 19.4655 14.841C19.3383 14.9633 19.2713 15.1274 19.279 15.2975C19.2828 15.3821 19.3051 15.4657 19.3444 15.5435C19.3838 15.6212 19.4396 15.6917 19.5085 15.7507C19.5775 15.8098 19.6583 15.8563 19.7463 15.8876C19.8343 15.9189 19.9279 15.9345 20.0215 15.9333C20.1157 15.9322 20.2081 15.9143 20.2935 15.8806C20.3789 15.8468 20.4557 15.798 20.5192 15.7368C20.5828 15.6757 20.632 15.6034 20.664 15.5242C20.6959 15.4451 20.71 15.3606 20.7054 15.2755C20.7009 15.1909 20.678 15.1075 20.638 15.03C20.598 14.9524 20.5417 14.8824 20.4723 14.8238C20.4028 14.7652 20.3217 14.7192 20.2334 14.6884C20.1452 14.6577 20.0515 14.6428 19.9579 14.6446Z" fill="#F6F5EE"/>
<path d="M20.8722 4.31278C20.684 4.31627 20.507 4.38689 20.3798 4.50922C20.2526 4.63155 20.1856 4.79565 20.1933 4.96575C20.1971 5.05039 20.2194 5.13398 20.2587 5.21174C20.2981 5.28951 20.3539 5.35995 20.4228 5.41899C20.4918 5.47804 20.5726 5.52454 20.6606 5.55588C20.7486 5.58721 20.8422 5.60276 20.9358 5.60161C21.03 5.60049 21.1224 5.58255 21.2078 5.54882C21.2932 5.51509 21.37 5.46624 21.4335 5.40509C21.4971 5.34394 21.5463 5.2717 21.5782 5.19252C21.6102 5.11335 21.6243 5.02879 21.6197 4.94377C21.6152 4.85914 21.5923 4.77569 21.5523 4.69818C21.5123 4.62066 21.456 4.55062 21.3866 4.49203C21.3171 4.43343 21.236 4.38744 21.1477 4.35669C21.0595 4.32594 20.9658 4.31101 20.8722 4.31278Z" fill="#F6F5EE"/>
<path d="M28.256 9.35917C28.0678 9.36266 27.8908 9.43328 27.7636 9.5556C27.6364 9.67792 27.5694 9.84202 27.5771 10.0121C27.5809 10.0967 27.6032 10.1803 27.6425 10.2581C27.6819 10.3359 27.7377 10.4063 27.8066 10.4653C27.8756 10.5244 27.9564 10.5709 28.0444 10.6022C28.1324 10.6336 28.2259 10.6491 28.3196 10.6479C28.4138 10.6468 28.5062 10.6289 28.5916 10.5952C28.677 10.5614 28.7537 10.5126 28.8173 10.4514C28.8809 10.3903 28.9301 10.3181 28.962 10.2389C28.994 10.1597 29.0081 10.0752 29.0035 9.99013C28.999 9.90551 28.9761 9.82206 28.9361 9.74455C28.8961 9.66704 28.8398 9.597 28.7704 9.53841C28.7009 9.47982 28.6198 9.43382 28.5315 9.40307C28.4433 9.37232 28.3496 9.35739 28.256 9.35917Z" fill="#F6F5EE"/>
<path d="M27.2787 18.4024C27.0905 18.4059 26.9135 18.4765 26.7863 18.5989C26.6591 18.7212 26.5921 18.8852 26.5998 19.0553C26.6036 19.14 26.6259 19.2236 26.6652 19.3014C26.7046 19.3791 26.7604 19.4496 26.8293 19.5086C26.8983 19.5676 26.9791 19.6141 27.0671 19.6455C27.1551 19.6768 27.2487 19.6924 27.3423 19.6912C27.4365 19.6901 27.5289 19.6721 27.6143 19.6384C27.6997 19.6047 27.7765 19.5558 27.84 19.4947C27.9036 19.4335 27.9528 19.3613 27.9848 19.2821C28.0167 19.203 28.0308 19.1184 28.0262 19.0333C28.0217 18.9487 27.9988 18.8653 27.9588 18.7878C27.9188 18.7103 27.8625 18.6402 27.7931 18.5816C27.7236 18.523 27.6425 18.4771 27.5542 18.4463C27.466 18.4156 27.3723 18.4006 27.2787 18.4024Z" fill="#F6F5EE"/>
<path d="M19.1214 30.7786C19.085 30.0406 19.7425 29.3365 20.6878 29.3219C21.633 29.3073 22.3591 29.9901 22.3955 30.7281C22.432 31.4661 21.7744 32.1702 20.8291 32.1848C19.8839 32.1993 19.1579 31.5166 19.1214 30.7786L19.1214 30.7786Z" fill="#F6F5EE" stroke="#BF9775"/>
<path d="M8.93936 22.5507C7.76642 22.5688 6.84013 23.4547 6.89247 24.5145C6.9448 25.5743 7.95735 26.4351 9.13029 26.4171C10.3032 26.399 11.224 25.5083 11.1717 24.4486C11.1194 23.3888 10.1123 22.5326 8.93936 22.5507Z" fill="#5E3614"/>
<path d="M7.71296 30.9519C7.67659 30.2154 8.33768 29.5098 9.28458 29.4952C10.2298 29.4806 10.9559 30.1634 10.9923 30.9013C11.0288 31.6393 10.3712 32.3433 9.42596 32.3579C8.47905 32.3725 7.74933 31.6883 7.71296 30.9519L7.71296 30.9519Z" fill="#F6F5EE" stroke="#BF9775"/>
<path d="M15.2144 34.0606C14.0414 34.0786 13.1206 34.9693 13.173 36.0291C13.2253 37.0888 14.2324 37.945 15.4053 37.9269C16.5783 37.9088 17.5046 37.0229 17.4522 35.9631C17.3999 34.9033 16.3873 34.0425 15.2144 34.0606Z" fill="#5E3614"/>
<path d="M15.0258 30.2735C14.8375 30.277 14.6605 30.3476 14.5333 30.4699C14.4062 30.5923 14.3391 30.7563 14.3469 30.9264C14.3507 31.0111 14.3729 31.0947 14.4123 31.1724C14.4517 31.2502 14.5075 31.3206 14.5764 31.3796C14.6454 31.4387 14.7262 31.4852 14.8142 31.5166C14.9022 31.5479 14.9957 31.5634 15.0894 31.5622C15.1835 31.5611 15.276 31.5432 15.3614 31.5095C15.4468 31.4757 15.5235 31.4269 15.5871 31.3657C15.6507 31.3046 15.6999 31.2323 15.7318 31.1531C15.7638 31.074 15.7779 30.9895 15.7733 30.9044C15.7688 30.8198 15.7459 30.7364 15.7059 30.6589C15.6659 30.5814 15.6095 30.5113 15.5401 30.4527C15.4707 30.3941 15.3896 30.3482 15.3013 30.3174C15.213 30.2867 15.1194 30.2717 15.0258 30.2735Z" fill="#D0AD9B"/>
<path d="M24.9388 28.7557C24.7506 28.7591 24.5736 28.8298 24.4464 28.9521C24.3193 29.0744 24.2522 29.2385 24.26 29.4086C24.2638 29.4932 24.286 29.5769 24.3254 29.6546C24.3648 29.7324 24.4205 29.8027 24.4895 29.8618C24.5584 29.9208 24.6392 29.9674 24.7273 29.9987C24.8153 30.0301 24.9088 30.0456 25.0025 30.0444C25.0966 30.0433 25.1891 30.0254 25.2745 29.9916C25.3599 29.9579 25.4366 29.9091 25.5002 29.8479C25.5638 29.7868 25.6129 29.7145 25.6449 29.6353C25.6769 29.5562 25.691 29.4716 25.6864 29.3866C25.6819 29.302 25.659 29.2186 25.619 29.1411C25.579 29.0636 25.5226 28.9935 25.4532 28.9349C25.3838 28.8763 25.3026 28.8303 25.2144 28.7996C25.1261 28.7688 25.0325 28.7539 24.9388 28.7557Z" fill="#D0AD9B"/>
<path d="M4.85022 26.482C4.662 26.4855 4.48499 26.556 4.35781 26.6784C4.23063 26.8007 4.1636 26.9647 4.17135 27.1348C4.17516 27.2195 4.19739 27.3031 4.23678 27.3809C4.27616 27.4586 4.33192 27.5291 4.40087 27.5881C4.46982 27.6472 4.55062 27.6937 4.63864 27.725C4.72666 27.7563 4.82019 27.7719 4.91387 27.7707C5.00799 27.7696 5.10043 27.7516 5.18585 27.7179C5.27126 27.6842 5.34797 27.6353 5.41155 27.5742C5.47513 27.513 5.52431 27.4408 5.55627 27.3616C5.58823 27.2825 5.60233 27.1979 5.59776 27.1129C5.59326 27.0282 5.57035 26.9448 5.53034 26.8673C5.49033 26.7898 5.43401 26.7197 5.36459 26.6611C5.29517 26.6025 5.21401 26.5566 5.12576 26.5258C5.0375 26.4951 4.94387 26.4802 4.85022 26.482Z" fill="#D0AD9B"/>
<path d="M20.2973 36.7185C20.109 36.722 19.932 36.7926 19.8048 36.9149C19.6777 37.0373 19.6106 37.2014 19.6184 37.3715C19.6222 37.4561 19.6444 37.5397 19.6838 37.6174C19.7232 37.6952 19.7789 37.7656 19.8479 37.8247C19.9168 37.8837 19.9976 37.9302 20.0857 37.9616C20.1737 37.9929 20.2672 38.0084 20.3609 38.0073C20.455 38.0062 20.5475 37.9882 20.6329 37.9545C20.7183 37.9207 20.795 37.8719 20.8586 37.8107C20.9222 37.7496 20.9713 37.6774 21.0033 37.5982C21.0353 37.519 21.0494 37.4345 21.0448 37.3495C21.0403 37.2649 21.0174 37.1814 20.9774 37.1039C20.9374 37.0264 20.881 36.9563 20.8116 36.8977C20.7422 36.8391 20.661 36.7932 20.5728 36.7624C20.4845 36.7317 20.3909 36.7168 20.2973 36.7185Z" fill="#D0AD9B"/>
</svg>
