<svg width="61" height="41" viewBox="0 0 61 41" fill="none" xmlns="http://www.w3.org/2000/svg">
<path d="M56.9832 6.54148L32.5483 7.32715L33.5911 21.8997L56.8042 21.1533C57.1283 21.1429 57.4317 21.0304 57.6478 20.8406C57.8638 20.6507 57.9748 20.3991 57.9564 20.141L56.9832 6.54148Z" fill="#5B2904" stroke="#45413C" stroke-linecap="round" stroke-linejoin="round"/>
<path d="M57.4585 12.2823L32.8447 13.0906L33.197 18.1087L57.8107 17.3004L57.4585 12.2823Z" fill="#2B0D16" stroke="#A15E7E" stroke-linecap="round" stroke-linejoin="round"/>
<path d="M40.3433 12.0895C40.6683 12.0798 40.9724 11.9675 41.1896 11.7771C41.4068 11.5866 41.5195 11.3333 41.5034 11.0722L41.4665 10.5878C41.4467 10.3279 41.5563 10.0747 41.7712 9.88398C41.986 9.69328 42.2886 9.58069 42.6122 9.57098C42.9359 9.56127 43.2542 9.65523 43.4971 9.8322C43.7399 10.0092 43.8875 10.2546 43.9073 10.5146L44.0171 11.9562C44.0567 12.4761 44.3519 12.967 44.8376 13.321C45.3234 13.6749 45.9599 13.8628 46.6073 13.8434C47.2546 13.824 47.8597 13.5988 48.2894 13.2174C48.7192 12.836 48.9383 12.3296 48.8987 11.8097L48.824 10.8294C48.8042 10.5695 48.9138 10.3163 49.1287 10.1256M40.3433 12.0895L57.9861 10.9576M40.3433 12.0895C40.1831 12.0943 40.0224 12.0737 39.8706 12.0289L40.3433 12.0895ZM49.1287 10.1256C49.3436 9.93488 49.6461 9.82229 49.9698 9.81258C50.2934 9.80287 50.6117 9.89683 50.8546 10.0738C51.0975 10.2508 51.245 10.4962 51.2648 10.7562C51.2747 10.8849 51.3159 11.0115 51.3863 11.1285M49.1287 10.1256L48.7858 9.7462C48.4763 10.0209 48.2914 10.4127 48.3243 10.8444L48.3989 11.8247C48.4255 12.1729 48.2816 12.5407 47.9465 12.838C47.6088 13.1378 47.115 13.3281 46.5693 13.3444C46.0235 13.3608 45.5031 13.201 45.1213 12.9228C44.7426 12.6468 44.5434 12.2894 44.5169 11.9412L44.4071 10.4996C44.3742 10.0679 44.1306 9.68895 43.7807 9.43401C43.4339 9.1813 42.9995 9.05924 42.5742 9.07199C42.1489 9.08475 41.7351 9.23227 41.4283 9.50459C41.1187 9.77931 40.9338 10.1711 40.9667 10.6028L41.0033 11.0827C41.008 11.1733 40.9706 11.289 40.8488 11.3958C40.7231 11.506 40.5294 11.5838 40.3053 11.5905L40.3053 11.5905C40.1973 11.5937 40.0907 11.5797 39.9926 11.5508C39.8943 11.5218 39.8098 11.4794 39.7422 11.4301C39.6747 11.3809 39.6273 11.3274 39.5967 11.2765C39.5664 11.2261 39.5516 11.177 39.548 11.1309L39.5111 10.6465C39.4783 10.2148 39.2347 9.83584 38.8848 9.5809C38.5379 9.32819 38.1035 9.20613 37.6783 9.21889C37.253 9.23164 36.8391 9.37916 36.5323 9.65149C36.2228 9.9262 36.0379 10.318 36.0708 10.7497L36.1431 11.6988C36.129 11.9022 36.0226 12.1191 35.8015 12.2983C35.5702 12.4858 35.2421 12.6058 34.8791 12.6167C34.5161 12.6276 34.1713 12.5278 33.9126 12.355C33.6653 12.1899 33.5263 11.9803 33.4814 11.7787L33.1666 7.64527L40.7909 1.46839C45.6518 1.66859 49.9025 2.32952 52.961 3.29509C54.5122 3.78481 55.7278 4.34401 56.5581 4.94061C57.395 5.54196 57.7645 6.12318 57.8049 6.65316L58.1309 10.9324C58.118 10.9408 58.0974 10.9502 58.0694 10.9558C58.0421 10.9611 58.0133 10.9617 57.9861 10.9576M49.1287 10.1256L48.7858 9.74619C49.0926 9.47387 49.5065 9.32636 49.9318 9.3136C50.357 9.30084 50.7914 9.4229 51.1383 9.67561C51.4881 9.93055 51.7317 10.3095 51.7646 10.7412C51.7681 10.7873 51.783 10.8364 51.8133 10.8868L51.3863 11.1285M51.3863 11.1285C51.4567 11.2456 51.5548 11.351 51.6751 11.4386C51.7954 11.5263 51.9354 11.5944 52.0872 11.6392C52.239 11.6841 52.3997 11.7047 52.5599 11.6998C52.8849 11.6901 53.189 11.5778 53.4062 11.3874C53.6233 11.197 53.7361 10.9437 53.72 10.6826M51.3863 11.1285L51.8133 10.8868C51.8439 10.9378 51.8913 10.9913 51.9588 11.0404C52.0264 11.0897 52.1109 11.1321 52.2092 11.1611C52.3073 11.1901 52.4139 11.2041 52.5219 11.2009C52.746 11.1941 52.9397 11.1163 53.0654 11.0062C53.1872 10.8993 53.2246 10.7836 53.2199 10.693M53.72 10.6826L53.6453 9.7023C53.6255 9.44233 53.7351 9.18914 53.95 8.99844C54.1648 8.80774 54.4674 8.69515 54.7911 8.68544C55.1147 8.67573 55.433 8.76969 55.6759 8.94666C55.9188 9.12362 56.0663 9.3691 56.0861 9.62907C56.1162 10.0431 56.3087 10.442 56.6361 10.7685C56.9634 11.0951 57.4088 11.3325 57.9083 11.4469L57.9991 10.9606C57.9948 10.9596 57.9904 10.9586 57.9861 10.9576M53.72 10.6826L53.2202 10.6975L53.2199 10.693M53.72 10.6826L53.2197 10.6903C53.2198 10.6912 53.2198 10.6921 53.2199 10.693M57.9861 10.9576C57.5763 10.8615 57.2283 10.6691 56.9826 10.424C56.7363 10.1783 56.6063 9.89467 56.586 9.6158L56.5859 9.61408C56.553 9.18239 56.3094 8.80341 55.9595 8.54848C55.6127 8.29576 55.1783 8.1737 54.753 8.18646C54.3278 8.19922 53.9139 8.34673 53.6071 8.61905C53.2975 8.89377 53.1127 9.2856 53.1455 9.7173L53.2199 10.693" fill="#FF6242" stroke="#AF8738"/>
<path d="M39.0114 10.6615C38.9915 10.4015 38.844 10.1561 38.6011 9.97909C38.3582 9.80212 38.0399 9.70816 37.7163 9.71787C37.3926 9.72758 37.0901 9.84017 36.8752 10.0309C36.6603 10.2216 36.5507 10.4748 36.5706 10.7347L36.6452 11.715C36.6327 12.0837 36.4483 12.432 36.1285 12.6912C35.8086 12.9505 35.3765 13.1019 34.9172 13.1157C34.4578 13.1295 34.0046 13.0046 33.6468 12.7657C33.289 12.5268 33.0526 12.1911 32.984 11.8248L32.6476 7.40795L40.6037 0.962228C50.5336 1.34627 58.0762 3.63976 58.3047 6.63817L58.6324 10.9397C58.6414 11.0155 58.6283 11.0914 58.5939 11.1615C58.5595 11.2316 58.5049 11.2938 58.4344 11.3432C58.364 11.3925 58.2797 11.4276 58.1883 11.4456C58.0969 11.4637 58.001 11.4641 57.9083 11.4469C57.4088 11.3325 56.9634 11.0951 56.6361 10.7685C56.3087 10.442 56.1162 10.0431 56.0861 9.62907C56.0663 9.3691 55.9188 9.12362 55.6759 8.94666C55.433 8.76969 55.1147 8.67573 54.7911 8.68544C54.4674 8.69515 54.1648 8.80774 53.95 8.99844C53.7351 9.18914 53.6255 9.44233 53.6453 9.7023L53.72 10.6826C53.7361 10.9437 53.6233 11.197 53.4062 11.3874C53.189 11.5778 52.8849 11.6901 52.5599 11.6998C52.3997 11.7047 52.239 11.6841 52.0872 11.6392C51.9354 11.5944 51.7954 11.5263 51.6751 11.4386C51.5548 11.351 51.4567 11.2456 51.3863 11.1285C51.3159 11.0115 51.2747 10.8849 51.2648 10.7562C51.245 10.4962 51.0975 10.2508 50.8546 10.0738C50.6117 9.89683 50.2934 9.80287 49.9698 9.81258C49.6461 9.82229 49.3436 9.93488 49.1287 10.1256C48.9138 10.3163 48.8042 10.5695 48.824 10.8294L48.8987 11.8097C48.9383 12.3296 48.7192 12.836 48.2894 13.2174C47.8597 13.5988 47.2546 13.824 46.6073 13.8434C45.9599 13.8628 45.3234 13.6749 44.8376 13.321C44.3519 12.967 44.0567 12.4761 44.0171 11.9562L43.9073 10.5146C43.8875 10.2546 43.7399 10.0092 43.4971 9.8322C43.2542 9.65523 42.9359 9.56127 42.6122 9.57098C42.2886 9.58069 41.986 9.69328 41.7712 9.88398C41.5563 10.0747 41.4467 10.3279 41.4665 10.5878L41.5034 11.0722C41.5195 11.3333 41.4068 11.5866 41.1896 11.7771C40.9724 11.9675 40.6683 12.0798 40.3433 12.0895C40.1831 12.0943 40.0224 12.0737 39.8706 12.0289C39.7188 11.9841 39.5788 11.9159 39.4585 11.8283C39.3382 11.7406 39.2401 11.6353 39.1697 11.5182C39.0993 11.4011 39.0581 11.2746 39.0483 11.1459L39.0114 10.6615Z" fill="#F0ECDE" stroke="#AF8738" stroke-linecap="round" stroke-linejoin="round"/>
<path d="M36.8438 7.39185L54.7433 6.64407" stroke="#AF8738" stroke-linecap="round" stroke-linejoin="round"/>
<path d="M2.21631 18.3958C2.48497 21.9268 12.2815 24.4892 24.1016 24.1341C35.9218 23.779 45.2702 20.6414 45.0015 17.1104L46.1254 31.8807C46.3888 35.3424 37.0717 38.5138 25.2228 38.8697C13.3739 39.2257 3.60353 36.6278 3.34013 33.166L2.21631 18.3958Z" fill="#5B2904" stroke="#45413C" stroke-linecap="round" stroke-linejoin="round"/>
<path d="M2.54199 24.1699C2.80713 27.6986 12.6548 30.3814 24.5297 30.0198C36.4046 29.6582 45.7951 26.4485 45.5255 22.861L45.9011 27.86C46.1716 31.4592 36.7667 34.6693 24.9062 35.0305C13.0457 35.3917 3.18804 32.7681 2.9176 29.1689L2.54199 24.1699Z" fill="#2B0D16" stroke="#A15E7E" stroke-linecap="round" stroke-linejoin="round"/>
<path d="M27.3673 12.0028C26.0472 11.9698 24.6873 11.9719 23.3062 12.0134C17.0863 12.2007 11.529 13.0831 7.57486 14.3466C5.59444 14.9793 4.04397 15.699 3.01495 16.4553C1.96829 17.2245 1.56806 17.948 1.61558 18.5737L2.21267 26.4348L2.21474 26.4622L2.21381 26.4895C2.20977 26.6079 2.23607 26.7282 2.29486 26.8451L1.85136 27.051L2.29486 26.8451C2.35404 26.9627 2.44715 27.0783 2.5759 27.1808C2.70488 27.2834 2.8649 27.3688 3.04819 27.4266C3.23139 27.4844 3.42981 27.5121 3.6299 27.5061C3.82999 27.5001 4.02331 27.4606 4.19691 27.392C4.37059 27.3234 4.51695 27.2288 4.62979 27.1189C4.74242 27.0092 4.81757 26.8885 4.85866 26.7679C4.89947 26.6481 4.90741 26.5267 4.88545 26.4091L4.88038 26.3819L4.8783 26.3546C4.83547 25.7907 5.0758 25.2698 5.49442 24.8978L5.83747 25.277L5.49442 24.8978C5.91035 24.5282 6.47788 24.3232 7.06758 24.3054C7.65729 24.2877 8.2533 24.4577 8.72335 24.8006C9.19644 25.1458 9.51461 25.6498 9.55744 26.2137L9.78135 29.1616L9.78296 29.1829L9.78276 29.2041C9.78041 29.4557 9.84218 29.7087 9.96839 29.9493C10.095 30.1907 10.2858 30.4181 10.5364 30.6136L10.2574 30.9768L10.5364 30.6136C10.7872 30.8092 11.0905 30.9671 11.4297 31.0726C11.7688 31.1781 12.1327 31.2278 12.4978 31.2168C12.863 31.2058 13.2177 31.1345 13.5393 31.0091C13.8609 30.8837 14.1389 30.7084 14.3589 30.4985C14.5787 30.2889 14.7342 30.051 14.8236 29.8032C14.9128 29.5561 14.936 29.3005 14.8955 29.0502L14.8921 29.0291L14.8905 29.0079C14.8476 28.444 15.088 27.9232 15.5066 27.5511C15.9225 27.1815 16.49 26.9765 17.0797 26.9587C17.6694 26.941 18.2655 27.111 18.7355 27.4539C19.2086 27.7991 19.5268 28.3031 19.5696 28.867L19.6427 29.8301C19.6877 30.0328 19.8271 30.2432 20.0748 30.4088C20.3339 30.5821 20.6792 30.6821 21.0425 30.6712C21.4058 30.6603 21.7343 30.5399 21.966 30.3519C22.1874 30.1722 22.2943 29.9543 22.3084 29.7499L22.2763 29.3271C22.2131 28.9129 22.255 28.4971 22.3959 28.1065C22.5391 27.7097 22.7799 27.3514 23.0955 27.0503C23.4109 26.7494 23.796 26.5105 24.2238 26.3437C24.6517 26.1769 25.1169 26.0843 25.5911 26.0701C26.0654 26.0558 26.5425 26.12 26.9937 26.2603C27.4448 26.4006 27.8643 26.6154 28.2239 26.896C28.5837 27.1767 28.8777 27.5189 29.0804 27.9053C29.2799 28.2857 29.3846 28.6971 29.3845 29.1131L29.4954 30.5728C29.5122 30.7938 29.6388 31.0309 29.8979 31.2199C30.1601 31.4112 30.5237 31.5248 30.9099 31.5132C31.296 31.5016 31.6408 31.3667 31.8727 31.1605C32.102 30.9567 32.1922 30.7131 32.1754 30.4921L31.9148 27.0619C31.8862 26.9214 31.8912 26.7788 31.9285 26.6438C31.9705 26.4919 32.0504 26.3593 32.1535 26.252C32.2563 26.1449 32.381 26.0636 32.5153 26.0084L32.7244 26.4711L32.5153 26.0084C32.6498 25.9531 32.7948 25.9233 32.9412 25.9189C33.0876 25.9145 33.2365 25.9354 33.3787 25.9824L33.2407 26.4556L33.3787 25.9824C33.5208 26.0293 33.6573 26.1027 33.7759 26.2032M27.3673 12.0028L33.7759 26.2032M27.3673 12.0028L20.9 17.5999L19.8304 18.5256L21.2764 18.4821L45.1936 17.7622C45.3018 17.7589 45.4084 17.773 45.5067 17.802C45.6051 17.8311 45.6897 17.8736 45.7575 17.923C45.8251 17.9724 45.8726 18.0261 45.9034 18.0774C45.9338 18.1281 45.9488 18.1776 45.9523 18.2241L46.4355 24.586C46.4214 24.7904 46.3146 25.0082 46.0931 25.188C45.8615 25.376 45.533 25.4963 45.1696 25.5072C44.8063 25.5182 44.4611 25.4181 44.202 25.2449C43.9534 25.0786 43.8138 24.8672 43.7694 24.6639C43.7168 24.1135 43.4019 23.6225 42.9381 23.2842C42.4681 22.9412 41.8721 22.7712 41.2824 22.789C40.6927 22.8067 40.1251 23.0117 39.7092 23.3814C39.2906 23.7534 39.0503 24.2742 39.0931 24.8381L39.2424 26.8034L39.244 26.8246L39.2474 26.8457C39.2879 27.096 39.2647 27.3516 39.1756 27.5987C39.0861 27.8465 38.9306 28.0844 38.7108 28.294C38.4908 28.5039 38.2128 28.6792 37.8912 28.8046C37.5696 28.93 37.2149 29.0013 36.8497 29.0123C36.4846 29.0233 36.1207 28.9736 35.7816 28.8681C35.4424 28.7626 35.1391 28.6048 34.8883 28.4091C34.6378 28.2136 34.4469 27.9862 34.3203 27.7448C34.1973 27.5103 34.1355 27.2639 34.1346 27.0186M27.3673 12.0028L34.1346 27.0186M33.7759 26.2032C33.8947 26.3038 33.9944 26.431 34.0592 26.5797C34.1199 26.7191 34.1462 26.8692 34.1346 27.0186M33.7759 26.2032L34.1346 27.0186" fill="#F0ECDE" stroke="#AF8738"/>
<path d="M28.6732 11.5488C26.9387 11.4735 25.1224 11.4587 23.2683 11.5145C10.7634 11.8908 0.847993 15.0628 1.1158 18.5887L1.71288 26.4498C1.70587 26.6551 1.75216 26.8602 1.84878 27.0522C1.94541 27.2443 2.09027 27.419 2.27414 27.5653C2.45802 27.7115 2.67688 27.8262 2.91682 27.9019C3.15675 27.9776 3.4125 28.0128 3.6678 28.0051C3.9231 27.9974 4.17236 27.9471 4.39972 27.8573C4.62708 27.7675 4.82758 27.6402 4.98844 27.4836C5.1493 27.3269 5.26702 27.1443 5.3341 26.9473C5.40119 26.7504 5.41616 26.5434 5.37808 26.3395C5.34828 25.9471 5.51352 25.5649 5.83747 25.277C6.16142 24.9891 6.61754 24.8191 7.10548 24.8044C7.59342 24.7897 8.07322 24.9315 8.43933 25.1987C8.80543 25.4658 9.02785 25.8363 9.05766 26.2288L9.28157 29.1767C9.2784 29.5143 9.36173 29.8505 9.52637 30.1644C9.69102 30.4783 9.93345 30.7631 10.2386 31.0012C10.5438 31.2393 10.9052 31.4256 11.3004 31.5485C11.6955 31.6715 12.116 31.7284 12.5357 31.7157C12.9554 31.7031 13.3654 31.6212 13.7401 31.4751C14.1149 31.329 14.4464 31.1219 14.7141 30.8665C14.9818 30.6112 15.1799 30.3131 15.2962 29.9907C15.4126 29.6684 15.4446 29.3287 15.3902 28.9928C15.3604 28.6004 15.5257 28.2182 15.8496 27.9303C16.1736 27.6424 16.6297 27.4724 17.1176 27.4577C17.6056 27.443 18.0854 27.5848 18.4515 27.852C18.8176 28.1191 19.04 28.4896 19.0698 28.8821L19.1453 29.8763C19.2139 30.2434 19.4506 30.5799 19.8087 30.8194C20.1669 31.0589 20.6206 31.184 21.0804 31.1702C21.5402 31.1563 21.9728 31.0045 22.2931 30.7446C22.6133 30.4847 22.7979 30.1356 22.8105 29.766L22.7745 29.292C22.7202 28.9561 22.7522 28.6164 22.8685 28.2941C22.9848 27.9717 23.183 27.6736 23.4507 27.4183C23.7184 27.1629 24.0499 26.9558 24.4246 26.8097C24.7994 26.6636 25.2093 26.5817 25.629 26.5691C26.0487 26.5564 26.4692 26.6133 26.8644 26.7363C27.2596 26.8592 27.621 27.0455 27.9261 27.2836C28.2313 27.5217 28.4737 27.8065 28.6384 28.1204C28.803 28.4343 28.8864 28.7705 28.8832 29.1081L28.9956 30.5879C29.0254 30.9803 29.2478 31.3508 29.6139 31.618C29.98 31.8851 30.4598 32.0269 30.9478 32.0122C31.4357 31.9975 31.8918 31.8275 32.2158 31.5397C32.5397 31.2518 32.705 30.8696 32.6752 30.4771L32.4117 27.009C32.3928 26.9385 32.393 26.866 32.4122 26.7964C32.4315 26.7267 32.4693 26.6616 32.5232 26.6054C32.5771 26.5493 32.6457 26.5035 32.7244 26.4711C32.8031 26.4387 32.89 26.4206 32.9791 26.4179C33.0682 26.4152 33.1575 26.4281 33.2407 26.4556C33.3239 26.4831 33.3992 26.5246 33.4614 26.5772C33.5235 26.6299 33.5711 26.6924 33.6008 26.7606C33.6305 26.8288 33.6416 26.901 33.6335 26.9722C33.6303 27.3098 33.7136 27.646 33.8783 27.9599C34.0429 28.2738 34.2854 28.5586 34.5905 28.7967C34.8957 29.0348 35.2571 29.2211 35.6523 29.3441C36.0475 29.467 36.4679 29.5239 36.8876 29.5113C37.3074 29.4986 37.7173 29.4167 38.092 29.2706C38.4668 29.1245 38.7983 28.9174 39.066 28.662C39.3337 28.4067 39.5318 28.1086 39.6482 27.7862C39.7645 27.4639 39.7965 27.1242 39.7421 26.7883L39.5929 24.8231C39.5631 24.4306 39.7283 24.0484 40.0523 23.7605C40.3762 23.4726 40.8323 23.3026 41.3203 23.288C41.8082 23.2733 42.288 23.4151 42.6541 23.6822C43.0202 23.9493 43.2426 24.3199 43.2725 24.7123C43.341 25.0795 43.5777 25.4159 43.9359 25.6554C44.294 25.8949 44.7477 26.0201 45.2075 26.0062C45.6673 25.9924 46.1 25.8406 46.4202 25.5807C46.7404 25.3208 46.925 24.9716 46.9377 24.602L46.4521 18.2091C46.4423 18.08 46.401 17.9532 46.3305 17.8358C46.2601 17.7185 46.1619 17.6129 46.0415 17.525C45.9211 17.4372 45.7809 17.3689 45.6289 17.3239C45.477 17.279 45.3162 17.2584 45.1557 17.2632L21.2385 17.9831L28.6732 11.5488Z" fill="#F0ECDE" stroke="#AF8738" stroke-linecap="round" stroke-linejoin="round"/>
<path d="M29.2765 17.8807L28.8092 11.7509L21.4795 18.1145L29.2765 17.8807Z" fill="#F0ECDE" stroke="#AF8738" stroke-linecap="round" stroke-linejoin="round"/>
<path d="M3.45068 18.4724C3.63954 21.0764 12.9071 22.8513 24.1236 22.4963C31.8232 22.2526 38.5244 21.0433 41.8051 19.4745" fill="#F0ECDE"/>
<path d="M3.45068 18.4724C3.63954 21.0764 12.9071 22.8513 24.1236 22.4963C31.8232 22.2526 38.5244 21.0433 41.8051 19.4745" stroke="#AF8738" stroke-linecap="round" stroke-linejoin="round"/>
<path d="M18.3256 16.0907C18.3256 16.8572 17.8794 17.5911 17.0852 18.131C16.2909 18.6709 15.2137 18.9725 14.0905 18.9695C12.9673 18.9665 11.8901 18.6592 11.0959 18.1151C10.3016 17.5709 9.85545 16.8346 9.85545 16.0681C9.85546 15.3016 10.3017 14.5677 11.0959 14.0278C11.8901 13.4879 12.9673 13.1863 14.0906 13.1893C15.2138 13.1922 16.291 13.4996 17.0852 14.0437C17.8794 14.5879 18.3256 15.3242 18.3256 16.0907Z" fill="#2B0D16"/>
<path d="M18.0652 15.0944C17.5257 15.3601 17.0863 15.7094 16.783 16.1138C16.4796 16.5182 16.3208 16.9662 16.3196 17.4213C16.3203 17.7628 16.4097 18.1017 16.5837 18.4222C17.1234 18.1564 17.5628 17.807 17.8662 17.4024C18.1696 16.9978 18.3283 16.5496 18.3293 16.0944C18.3284 15.7533 18.239 15.4147 18.0652 15.0944Z" fill="#EC7067"/>
<path fill-rule="evenodd" clip-rule="evenodd" d="M20.6013 10.0039C20.6013 10.0039 19.4327 8.88049 18.5411 8.65635C17.6494 8.43217 15.7002 8.77166 15.7002 8.77166C15.7002 8.77166 16.8688 9.89509 17.7604 10.1192C18.6521 10.3434 20.6013 10.0039 20.6013 10.0039Z" fill="#88B03C"/>
<path fill-rule="evenodd" clip-rule="evenodd" d="M20.6039 10.009C20.6039 10.009 21.6534 9.01283 22.454 8.81726C23.2547 8.62164 25.0049 8.93395 25.0049 8.93395C25.0049 8.93395 23.9554 9.93022 23.1547 10.1258C22.3541 10.3214 20.6039 10.009 20.6039 10.009Z" fill="#8BA753"/>
<path d="M25.3409 17.4516C25.3408 18.2181 24.8946 18.952 24.1003 19.4918C23.306 20.0317 22.2287 20.3332 21.1055 20.3302C19.9823 20.3271 18.9051 20.0197 18.111 19.4755C17.3168 18.9313 16.8707 18.195 16.8708 17.4285C16.8709 16.662 17.3171 15.9281 18.1114 15.3882C18.9057 14.8484 19.983 14.5468 21.1062 14.5499C22.2294 14.5529 23.3066 14.8604 24.1007 15.4046C24.8949 15.9487 25.341 16.6851 25.3409 17.4516Z" fill="#2B0D16"/>
<path d="M15.2802 15.7518C15.0611 15.7565 14.8431 15.7275 14.6422 15.6671C14.4413 15.6067 14.2627 15.5163 14.1194 15.4027C13.9762 15.2891 13.872 15.1551 13.8145 15.0106C13.757 14.8661 13.7477 14.7147 13.7872 14.5677" stroke="#AF8738" stroke-linecap="round" stroke-linejoin="round"/>
<path d="M22.7298 16.3385C22.5433 16.4332 22.3292 16.4994 22.102 16.5326C21.8747 16.5658 21.6395 16.5652 21.4123 16.5309C21.185 16.4966 20.9708 16.4294 20.7842 16.3338C20.5975 16.2382 20.4427 16.1164 20.3301 15.9766" stroke="#AF8738" stroke-linecap="round" stroke-linejoin="round"/>
<path fill-rule="evenodd" clip-rule="evenodd" d="M17 13.9972L15.7672 14.6686C15.7315 14.6862 15.7014 14.7087 15.6788 14.7345C15.6562 14.7604 15.6415 14.7891 15.6356 14.819C15.6298 14.8489 15.6328 14.8793 15.6447 14.9084C15.6565 14.9375 15.6768 14.9647 15.7044 14.9883C15.732 15.0119 15.7663 15.0315 15.8053 15.0458C15.8442 15.0601 15.8869 15.0689 15.9309 15.0716C15.9749 15.0743 16.0191 15.0708 16.061 15.0615C16.1029 15.0521 16.1416 15.0371 16.1747 15.0172L17.4432 14.3275C17.3081 14.2098 17.1599 14.0993 17 13.9972ZM22.1896 14.6514C22.1721 14.7123 22.1604 14.7735 22.1399 14.8341L21.8482 15.7006C21.8356 15.7297 21.8318 15.7603 21.8371 15.7906C21.8425 15.8208 21.8567 15.8499 21.8791 15.8763C21.9016 15.9026 21.9316 15.9255 21.9674 15.9437C22.0032 15.9618 22.0441 15.9748 22.0874 15.9817C22.1308 15.9887 22.1757 15.9895 22.2195 15.9842C22.2632 15.9788 22.3049 15.9674 22.3419 15.9506C22.3789 15.9338 22.4104 15.912 22.4346 15.8865C22.4588 15.8611 22.475 15.8324 22.4824 15.8024L22.7754 14.936C22.7901 14.8924 22.7978 14.8483 22.8111 14.8046C22.61 14.7426 22.4022 14.6913 22.1896 14.6514Z" fill="#EC7067"/>
<path fill-rule="evenodd" clip-rule="evenodd" d="M20.6085 9.66461C20.5357 9.66405 20.4648 9.68016 20.4072 9.71037C20.3495 9.74058 20.3084 9.78314 20.2905 9.83126L20.0067 10.6057C19.5742 11.7848 18.5858 12.8325 17.1936 13.5887L15.3539 14.5882C15.3182 14.6058 15.2882 14.6281 15.2656 14.6539C15.243 14.6797 15.2284 14.7083 15.2225 14.7381C15.2167 14.7679 15.2197 14.7982 15.2315 14.8272C15.2434 14.8562 15.2637 14.8833 15.2912 14.9068C15.3188 14.9304 15.3531 14.9499 15.392 14.9642C15.4309 14.9784 15.4735 14.9872 15.5174 14.9899C15.5614 14.9925 15.6056 14.9891 15.6474 14.9798C15.6893 14.9705 15.7279 14.9555 15.761 14.9357L17.6006 13.9371C19.1042 13.1205 20.1706 11.9885 20.6377 10.7151L20.7077 10.5226L21.0702 11.0175C21.9165 12.1751 22.1456 13.4957 21.7199 14.7531L21.4284 15.6169C21.4158 15.646 21.4121 15.6765 21.4174 15.7066C21.4227 15.7368 21.437 15.7658 21.4594 15.7921C21.4818 15.8183 21.5118 15.8412 21.5476 15.8593C21.5834 15.8774 21.6241 15.8903 21.6674 15.8972C21.7107 15.9042 21.7556 15.905 21.7994 15.8997C21.8431 15.8943 21.8847 15.8829 21.9216 15.8662C21.9586 15.8495 21.9901 15.8277 22.0142 15.8023C22.0384 15.7769 22.0546 15.7484 22.062 15.7185L22.3547 14.8547C22.8144 13.4968 22.5656 12.0704 21.6516 10.8203L20.8973 9.7878C20.8704 9.75115 20.8292 9.72026 20.7782 9.69852C20.7273 9.67678 20.6685 9.66505 20.6085 9.66461Z" fill="#88B03C"/>
</svg>
