<svg width="55" height="42" viewBox="0 0 55 42" fill="none" xmlns="http://www.w3.org/2000/svg">
<path d="M28.719 3.23085C28.5942 3.22018 26.6146 -0.150963 22.7465 0.811349C20.5416 1.35997 20.4698 4.26147 20.9202 5.28181C22.8934 6.29935 24.4864 7.73376 26.8833 8.01503C26.2564 7.77586 25.6485 7.51366 25.0839 7.19541C25.6485 7.51366 26.2564 7.77586 26.8833 8.01503C26.9827 8.02828 27.0821 8.04153 27.1821 8.04805C27.4287 6.37094 27.8329 4.71229 28.719 3.23085Z" fill="#683608"/>
<path d="M36.1408 5.97276C35.6607 5.43095 35.3637 4.68892 34.8181 4.25985C32.9987 2.82508 30.925 3.44873 28.719 3.23085C27.8326 4.71566 27.4284 6.37431 27.1824 8.04469C27.0782 8.03804 26.983 8.02492 26.8836 8.01167C29.4522 8.98714 32.3828 9.51815 34.2543 11.3665C34.2569 11.1674 34.2678 10.9685 34.2829 10.7697C33.5136 10.2695 32.7246 9.79901 31.8724 9.41771C32.7246 9.79901 33.5136 10.2695 34.2829 10.7697C34.4147 9.0654 35.0405 7.41371 36.1408 5.97276Z" fill="#683608"/>
<path d="M44.3339 10.4881C43.9992 9.701 43.9581 8.56859 42.6514 7.55511C42.1325 7.15389 41.4497 6.66986 40.2538 6.46008C39.289 6.28796 37.9552 6.85044 37.0142 6.56426C36.6431 6.45468 36.371 6.23342 36.1366 5.96944C35.0402 7.41388 34.4143 9.06557 34.2783 10.7698C36.8977 12.4762 39.2334 14.5552 42.643 14.7737C42.8805 13.1909 43.3696 11.7375 44.3339 10.4881Z" fill="#683608"/>
<path d="M47.3118 19.0903C49.3227 18.5525 51.0964 18.0376 51.1287 17.9643C52.3595 15.2646 53.5383 13.5763 51.582 12.2554C49.3069 10.7185 47.6209 12.3606 45.1064 11.3024C44.6953 11.1308 44.4883 10.844 44.3379 10.4915C43.3737 11.7409 42.8803 13.1942 42.647 14.7772C42.4762 14.765 42.3061 14.7462 42.1402 14.7275C43.3701 16.532 45.194 18.0074 47.3118 19.0903Z" fill="#683608"/>
<path d="M42.1403 14.7242C39.0063 14.3455 36.7717 12.3912 34.2825 10.77C34.2675 10.9687 34.2524 11.1674 34.254 11.3667C32.3824 9.51837 29.4519 8.98735 26.8833 8.01188C24.4864 7.7306 22.7775 6.32295 20.8047 5.30204C20.8117 5.31577 20.9486 5.02969 20.9556 5.04342L13.845 17.3771L9.16311 24.0032C9.43065 23.6233 13.8432 23.6201 14.5069 23.5667C16.375 23.4194 18.2473 23.2723 20.1157 23.1217C23.8532 22.8137 27.5891 22.4786 31.3108 22.0317C35.0321 21.5881 38.7388 21.036 42.4003 20.3002C43.5082 20.0784 45.5074 19.5739 47.3117 19.0904C45.1938 18.0075 43.3699 16.5321 42.1403 14.7242Z" fill="#F2D299"/>
<path d="M9.34072 23.7756L1.12556 29.3824L0.37297 38.0025C0.37297 38.0025 -0.0394743 39.5731 0.590677 39.7786C1.22468 39.9876 7.94405 38.99 9.3699 38.8187C12.9902 38.3787 16.556 37.6365 20.1037 36.8633C21.6804 36.5212 23.2769 36.0176 24.8735 35.8584C26.7114 35.6764 28.3715 35.4686 30.1677 35.0253C35.4922 33.707 40.8027 32.4456 46.1296 31.232C47.2661 30.9739 48.5345 30.2642 48.8855 29.3264C49.2201 28.4287 49.0948 27.4287 49.2892 26.5063C49.8924 23.662 50.4955 20.8177 51.1025 17.9769C37.5469 21.9978 23.3528 22.5715 9.34072 23.7756Z" fill="#683608"/>
<path d="M43.2959 28.4453C44.5867 27.8071 45.8458 27.3234 46.9888 26.7819C47.3188 24.8508 47.8373 21.7979 48.1361 20.0582C44.9908 21.0061 41.8129 21.8145 38.7959 22.78C33.2978 23.8565 27.4126 24.5562 21.7604 26.7017C20.3322 27.3287 19.2104 27.9113 17.8336 28.1821C14.6978 28.3402 12.1399 28.5941 9.39052 29.1357C6.54443 29.5933 3.96478 30.6332 0.976187 30.4414C0.921122 32.003 0.800732 34.8861 0.661251 35.8913C0.553651 36.6543 0.427431 37.3932 0.417308 37.9297C11.4337 35.8718 22.4579 33.777 33.6241 30.694C36.4248 29.7961 40.7795 30.4326 43.2959 28.4453Z" fill="#FAF692"/>
<path d="M43.2961 28.4451C40.7794 30.4358 36.425 29.7959 33.6243 30.6939C22.4539 33.7768 11.4339 35.8717 0.417506 37.9296C0.407186 38.3817 0.478468 38.6845 0.713868 38.7223C1.22583 38.8059 8.29127 37.8292 10.7723 37.1137C13.2534 36.3982 21.6297 35.1386 24.4891 34.5869C24.4891 34.5869 32.7231 33.0223 34.5571 32.4047C36.3912 31.787 38.342 31.3925 41.4701 30.5791C43.9871 29.9255 46.5262 29.5191 46.7125 28.4208C46.7527 28.179 46.8575 27.5745 46.9896 26.775C45.8501 27.3234 44.5872 27.8037 43.2961 28.4451Z" fill="#BF9775"/>
<path d="M9.62487 24.9927C12.3743 24.4511 15.6658 24.2439 18.8013 24.0891C20.1739 23.8183 21.0339 23.0383 22.4578 22.4111C28.7274 20.6025 33.7389 19.3114 39.2377 18.2282C42.2547 17.2628 45.4326 16.4543 48.5779 15.5065C48.7145 14.7038 48.8031 14.1798 48.8031 14.1798L42.3212 15.3234L1.45102 24.8575C1.45102 24.8575 1.44011 25.2724 1.41764 25.893C2.71212 27.1188 6.77878 25.4503 9.62487 24.9927Z" fill="#685E08"/>
<path d="M20.9387 5.1305C20.9387 5.1305 9.94222 17.3995 6.90499 21.5989C3.50417 26.3035 2.37076 27.3079 2.37076 27.3079C2.37076 27.3079 0.236566 29.4625 1.40154 29.516C2.16158 29.55 4.03752 29.5381 6.43601 28.982C7.71473 28.6846 9.38826 28.0787 11.0072 28.0351C12.1553 28.0036 14.0583 27.7561 16.2043 27.1652C18.5531 26.5164 21.2417 25.9526 24.087 25.4173C28.1841 24.6445 31.7812 22.9309 33.497 22.4952C37.535 21.4673 48.5246 18.6489 48.5246 18.6489C48.5246 18.6489 40.6402 13.2824 33.9355 10.0667C27.2307 6.85098 20.9387 5.1305 20.9387 5.1305Z" fill="#683608"/>
<path opacity="0.61" d="M23.8644 17.989C22.447 17.9445 21.1381 18.1633 20.1314 18.5537C20.0314 18.5472 19.9313 18.5407 19.8268 18.5374C18.0246 18.4808 16.391 18.8482 15.3418 19.4601C15.1106 19.4224 14.8658 19.3945 14.6066 19.3863C13.164 19.341 11.8914 19.6184 11.8267 20.2849C11.7624 20.9481 12.4588 21.5946 13.8969 21.6432C14.5345 22.6795 16.8676 23.705 19.2468 23.7797C20.6643 23.8243 22.0524 23.5235 23.0591 23.1331C23.1591 23.1396 23.2592 23.1461 23.3637 23.1494C26.3659 23.2437 28.9116 22.1656 29.05 20.7383C29.1879 19.3178 26.8667 18.0833 23.8644 17.989Z" fill="#FAF692"/>
<path d="M28.3548 16.8773C29.2375 17.6782 29.4223 19.1461 28.8429 20.2759C28.4551 21.0301 27.8043 21.7289 26.9537 22.0668C25.113 22.7957 22.7696 22.6984 22.4535 22.7999C23.99 21.3592 28.351 16.8738 28.3548 16.8773Z" fill="#D9C1A5"/>
<path d="M26.5042 15.3776C33.2456 18.6484 22.9449 22.623 22.9407 22.6229C20.3957 23.306 18.8418 23.2842 16.72 22.7178C15.0686 22.2743 14.6106 21.3753 14.2403 20.5229C17.07 20.0614 20.234 20.4343 22.9797 19.3692C24.5603 18.9428 27.0884 17.4826 26.5042 15.3776Z" fill="#FDE9D2"/>
<path d="M26.4945 15.2624C26.5211 15.3341 26.5706 15.3863 26.5706 15.3863C27.1548 17.4914 24.5935 18.9472 23.0132 19.3702C20.2676 20.4353 17.1965 20.143 14.3668 20.6045C14.333 20.5629 14.2903 20.5278 14.2428 20.4993C16.5157 19.7671 18.9179 19.3462 21.5052 18.7455C23.6494 17.9147 25.4512 16.8942 26.4945 15.2624Z" fill="#EED4B5"/>
<path d="M14.0884 16.3413C14.1056 16.3443 14.1188 16.3448 14.136 16.3478C14.1227 16.3498 14.1047 16.3543 14.0913 16.3563C14.0874 16.3512 14.0879 16.3463 14.0884 16.3413Z" fill="#FBE2C5"/>
<path d="M14.0841 16.5134C15.4829 16.3615 17.1907 16.6988 18.3728 16.7055C20.8586 16.7195 24.6767 15.0195 23.8477 12.1944C23.7975 11.3723 22.9581 10.4276 21.7329 9.95688C21.5996 9.86152 21.453 9.77251 21.3016 9.69009C26.6652 10.8648 26.701 14.0398 26.4998 15.249C26.4282 15.3818 25.5339 17.3796 21.505 18.7454C19.8917 19.1202 18.2408 19.4059 16.648 19.8286C15.365 20.1698 14.2143 20.9204 12.8742 20.2942C11.9915 19.8815 11.521 18.9821 11.7557 18.1622C12.0732 17.0512 12.9822 16.6307 14.0841 16.5134Z" fill="#FBE2C5"/>
<path d="M22.7654 11.6369C22.9021 11.1786 22.4621 10.4827 21.7327 9.96007C22.9537 10.4306 23.7973 11.3755 23.8476 12.1976C24.6765 15.0227 20.8584 16.7227 18.3727 16.7087C16.9289 16.8052 15.5101 16.558 14.1334 16.3527C17.627 15.4022 21.4699 14.9591 22.7654 11.6369Z" fill="#EED4B5"/>
<path d="M14.4023 14.3153C14.6721 13.8679 15.1372 13.4841 15.9003 13.184C17.5919 12.5213 19.506 12.8077 21.2631 12.2922C23.0333 11.7705 21.8455 10.18 21.3184 9.69072C21.5567 9.7421 21.6466 9.80908 21.761 9.92748C22.4904 10.4501 22.9023 11.1755 22.7697 11.6339C21.474 14.9595 17.6314 15.3993 14.1381 16.3464C14.1217 16.3425 14.1091 16.3421 14.0927 16.3382C14.0234 15.5831 14.0524 14.8952 14.4023 14.3153Z" fill="#FDF2E6"/>
<g opacity="0.2">
<path opacity="0.2" d="M26.2775 0.73548L26.174 1.80257C27.9218 1.85748 29.0706 3.28806 29.4485 3.75914C29.6434 3.99824 29.905 4.32722 30.5158 4.38693C30.7776 4.41204 31.0484 4.43068 31.3453 4.44C31.7759 4.45354 32.1832 4.44945 32.582 4.4451C32.9433 4.43957 33.2833 4.43674 33.6094 4.44699C34.5042 4.47511 35.1924 4.6014 35.8745 5.13605C36.0576 5.28024 36.2508 5.58007 36.4408 5.86966C36.6234 6.14889 36.8096 6.43499 37.0511 6.71269C37.4666 7.18495 37.9476 7.50057 38.5183 7.67044C38.8035 7.75706 39.1219 7.8042 39.4606 7.81485C39.9875 7.8314 40.5022 7.75641 40.9575 7.68968C41.285 7.64257 41.6212 7.59236 41.8428 7.59932C41.893 7.6009 41.9219 7.60518 41.9345 7.60558C42.7838 7.75719 43.2635 8.08627 43.7239 8.44176C44.4655 9.01205 44.6489 9.62896 44.8499 10.2802C44.92 10.5086 44.9898 10.7404 45.085 10.9696C45.2622 11.3905 45.5981 11.9919 46.4606 12.3533C47.1939 12.6633 47.954 12.8257 48.7819 12.8517C49.3381 12.8691 49.8499 12.8244 50.3025 12.7846C50.6747 12.7524 51.0261 12.7196 51.3355 12.7293C51.716 12.7413 52.1459 12.8054 52.7089 13.1844C53.5158 13.7297 53.5882 14.1507 52.3514 16.7387C52.2201 17.0115 52.0833 17.2975 51.9497 17.5938C51.8765 17.6996 51.823 17.8195 51.7987 17.9403L51.0647 21.3983L49.9899 26.4664C49.8966 26.9092 49.8673 27.3404 49.8397 27.7549C49.8068 28.2671 49.7723 28.7522 49.6244 29.1527C49.4545 29.6066 48.6631 30.1118 47.8268 30.3016C42.5517 31.5 37.1723 32.7795 31.8346 34.1042C30.2016 34.5087 28.6892 34.7077 26.775 34.8974C25.5554 35.0177 24.3777 35.3116 23.2348 35.5931C22.7447 35.7161 22.2807 35.8299 21.818 35.9301C18.4372 36.668 14.8367 37.4227 11.2376 37.8599C10.9236 37.8973 10.388 37.9717 9.70782 38.0651C8.11817 38.2819 5.08751 38.6965 3.60031 38.8085C3.61697 38.6368 3.6478 38.4487 3.69308 38.2847C3.70634 38.2345 3.7151 38.1875 3.72 38.137L4.2715 31.7187C4.27281 31.7053 4.27411 31.6918 4.27542 31.6783C4.29116 31.2568 4.3088 30.8589 4.32023 30.525C4.32964 30.2552 4.33963 30.0225 4.34407 29.8471C4.4373 29.6643 4.46461 29.4693 4.42855 29.2791C4.55856 29.0198 4.97911 28.4894 5.3979 28.0636C5.65623 27.8219 6.9113 26.558 10.0646 22.2002C12.8936 18.2879 22.7988 7.19342 23.9185 5.94216C23.9188 5.93879 23.923 5.93893 23.9233 5.93556L23.9278 5.93232L23.9513 5.90605L23.9745 5.88315C24.2194 5.60722 24.2884 5.24135 24.1766 4.92383L24.177 4.92046C23.9681 4.35003 23.9876 3.11147 24.4815 2.38754C24.7113 2.05037 24.9508 1.95997 25.1142 1.91784C25.484 1.82478 25.8401 1.78533 26.183 1.7961L26.2859 0.735743L26.2775 0.73548ZM26.2775 0.73548C25.8092 0.720766 25.3012 0.768958 24.7552 0.907119C22.6192 1.43764 22.4881 4.17184 22.8892 5.26829L22.8437 5.3479C21.7241 6.59916 11.7811 17.7364 8.91794 21.6982C5.51713 26.4028 4.38371 27.4071 4.38371 27.4071C4.38371 27.4071 2.79813 29.0084 3.11298 29.4809L3.02288 29.5017C3.02288 29.5017 3.01197 29.9166 2.9895 30.5372C2.97807 30.8711 2.96076 31.2656 2.94502 31.6872L2.3858 38.0984C2.3858 38.0984 1.97336 39.669 2.60351 39.8745C2.6482 39.8894 2.72699 39.8987 2.83153 39.902C4.17794 39.9443 10.0627 39.0757 11.3827 38.9146C15.003 38.4746 18.5688 37.7324 22.1166 36.9592C23.6932 36.6171 25.2897 36.1135 26.8864 35.9543C28.7243 35.7723 30.3844 35.5645 32.1805 35.1212C37.505 33.8029 42.8156 32.5415 48.1425 31.3279C49.2789 31.0698 50.5473 30.3601 50.8984 29.4224C51.2329 28.5246 51.1077 27.5246 51.3021 26.6022C51.9049 23.7612 52.508 20.917 53.1108 18.076C53.124 18.0697 53.1331 18.0632 53.1334 18.0598C54.3642 15.3602 55.543 13.6719 53.5867 12.351C52.8232 11.834 52.1212 11.6769 51.4355 11.6554C50.5992 11.6291 49.781 11.806 48.882 11.7777C48.33 11.7604 47.748 11.6644 47.1111 11.3979C46.7 11.2263 46.4929 10.9396 46.3426 10.5871C46.008 9.79996 45.9669 8.66755 44.6602 7.65407C44.1413 7.25285 43.4585 6.76882 42.2625 6.55905C42.1593 6.5423 42.0512 6.53215 41.9425 6.52873C41.2024 6.50548 40.3126 6.77127 39.56 6.74763C39.3718 6.74171 39.1936 6.71923 39.0268 6.66672C38.6557 6.55715 38.3836 6.33588 38.1492 6.0719C37.6691 5.53009 37.372 4.78806 36.8265 4.35899C35.8562 3.59581 34.8127 3.41446 33.7171 3.38003C32.9854 3.35704 32.2265 3.39735 31.453 3.37305C31.2146 3.36556 30.9728 3.35121 30.7319 3.32676C30.6238 3.31661 29.1418 0.825475 26.2775 0.73548ZM22.853 5.33806C22.8634 5.31813 22.8782 5.29496 22.8892 5.26829C22.8927 5.27516 22.892 5.28189 22.8956 5.28875C22.8859 5.30195 22.8675 5.31826 22.853 5.33806Z" fill="#424242"/>
</g>
</svg>
