<svg width="156" height="156" viewBox="0 0 156 156" fill="none" xmlns="http://www.w3.org/2000/svg">
<g filter="url(#filter0_d_139_500)">
<circle cx="73" cy="73" r="73" fill="#761520"/>
<circle cx="73" cy="73" r="72.5" stroke="#F6F5EE"/>
</g>
<path fill-rule="evenodd" clip-rule="evenodd" d="M102.629 42.4089C98.7072 38.4613 94.041 35.3311 88.9008 33.1997C83.7606 31.0684 78.2486 29.9782 72.684 29.9923C49.3504 29.9923 30.3553 48.9827 30.3459 72.3257C30.3459 79.7861 32.2935 87.0672 35.9954 93.4901L29.9922 115.423L52.4345 109.533C58.6423 112.912 65.5971 114.684 72.6651 114.687H72.684C96.0129 114.687 115.008 95.697 115.017 72.354C115.033 66.7917 113.947 61.2814 111.82 56.1415C109.694 51.0016 106.57 46.3342 102.629 42.4089V42.4089ZM72.684 107.543H72.6698C66.3673 107.544 60.1808 105.848 54.7594 102.634L53.4767 101.87L40.1594 105.364L43.7103 92.3819L42.8756 91.052C39.352 85.4423 37.4866 78.9503 37.495 72.3257C37.5044 52.9251 53.2881 37.1414 72.6981 37.1414C77.3208 37.1311 81.8995 38.0378 86.1694 39.8089C90.4393 41.58 94.3155 44.1804 97.5738 47.4595C100.849 50.723 103.446 54.6034 105.213 58.8764C106.98 63.1493 107.882 67.7301 107.868 72.354C107.859 91.7547 92.0752 107.543 72.684 107.543ZM91.9856 81.1866C90.9245 80.6538 85.7278 78.0978 84.7563 77.7441C83.7896 77.3904 83.087 77.216 82.3796 78.2723C81.6722 79.3286 79.6444 81.7101 79.0267 82.4174C78.4089 83.1248 77.7912 83.2097 76.7348 82.6815C75.6785 82.1534 72.269 81.0357 68.2276 77.4329C65.0822 74.627 62.9601 71.1656 62.3423 70.1046C61.7245 69.0435 62.2763 68.4729 62.8092 67.9448C63.2855 67.4732 63.8655 66.7092 64.3937 66.0915C64.9218 65.4737 65.0963 65.0352 65.45 64.3278C65.8037 63.6204 65.6292 63.0027 65.3604 62.4745C65.0963 61.9416 62.9789 56.7354 62.0971 54.618C61.2435 52.5667 60.3711 52.8402 59.7204 52.8119C59.0464 52.7843 58.3718 52.7717 57.6973 52.7742C57.1609 52.7878 56.6331 52.9122 56.147 53.1394C55.661 53.3666 55.2271 53.6918 54.8725 54.0946C53.9011 55.1556 51.1707 57.7116 51.1707 62.9178C51.1707 68.124 54.9621 73.1557 55.4903 73.8631C56.0185 74.5704 62.9507 85.2516 73.5611 89.8353C76.0888 90.9247 78.0599 91.5755 79.5926 92.0659C82.1249 92.8723 84.4309 92.7544 86.2559 92.4856C88.2884 92.1838 92.5138 89.9297 93.3956 87.4586C94.2775 84.9875 94.2775 82.8702 94.0134 82.4269C93.7493 81.9836 93.0372 81.7148 91.9856 81.1866" fill="#FDF2E6"/>
<defs>
<filter id="filter0_d_139_500" x="0" y="0" width="156" height="156" filterUnits="userSpaceOnUse" color-interpolation-filters="sRGB">
<feFlood flood-opacity="0" result="BackgroundImageFix"/>
<feColorMatrix in="SourceAlpha" type="matrix" values="0 0 0 0 0 0 0 0 0 0 0 0 0 0 0 0 0 0 127 0" result="hardAlpha"/>
<feOffset dx="6" dy="6"/>
<feGaussianBlur stdDeviation="2"/>
<feComposite in2="hardAlpha" operator="out"/>
<feColorMatrix type="matrix" values="0 0 0 0 0.768627 0 0 0 0 0.768627 0 0 0 0 0.768627 0 0 0 1 0"/>
<feBlend mode="normal" in2="BackgroundImageFix" result="effect1_dropShadow_139_500"/>
<feBlend mode="normal" in="SourceGraphic" in2="effect1_dropShadow_139_500" result="shape"/>
</filter>
</defs>
</svg>
