<svg width="50" height="50" viewBox="0 0 50 50" fill="none" xmlns="http://www.w3.org/2000/svg">
<path d="M34.7623 32.0628L34.4707 32.3538L30.2129 28.1059C32.7209 25.1382 34.2374 21.2976 34.2374 17.1079C34.2374 12.6273 32.4293 8.26302 29.2213 5.06255C26.0134 1.8039 21.5806 0 17.0895 0C7.64071 0 0 7.68112 0 17.1079C0 21.705 1.80811 26.0111 5.07437 29.2697C8.2823 32.4702 12.5401 34.2159 17.0312 34.2159C17.0895 34.2159 17.0895 34.2159 17.1479 34.2159C21.3473 34.2159 25.1968 32.7029 28.1715 30.2008L32.4293 34.4486L31.9627 34.856C31.3794 35.4379 31.3794 36.3689 31.9627 36.8926L44.0945 48.9962C45.436 50.3346 47.6524 50.3346 48.9939 48.9962C50.3354 47.6578 50.3354 45.4466 48.9939 44.1082L36.8037 32.0628C36.2205 31.4809 35.3456 31.4809 34.7623 32.0628ZM17.0895 31.2482H17.0312C13.2983 31.2482 9.74045 29.7934 7.11578 27.1749C4.43278 24.4981 2.9163 20.8903 2.9163 17.1079C2.9163 9.25226 9.27384 2.90951 17.0895 2.90951C20.8224 2.90951 24.4386 4.42246 27.1216 7.09922C29.8046 9.77597 31.3211 13.3838 31.3211 17.1079C31.3211 24.9054 24.9635 31.2482 17.0895 31.2482Z" fill="#2B0D16"/>
<path d="M5.59961 17.1083C5.59961 18.3302 5.77459 19.4941 6.12453 20.6579C6.41616 21.4725 7.34936 21.8799 8.16591 21.5307C8.80748 21.2398 9.15743 20.4833 8.92413 19.785C8.63251 18.9122 8.51586 18.0393 8.51586 17.1083C8.51586 14.9552 9.33241 12.9186 10.7905 11.3474C11.2571 10.8237 11.2571 10.009 10.8489 9.48532C10.2656 8.78704 9.27408 8.78704 8.63251 9.42714C6.70778 11.4638 5.59961 14.1987 5.59961 17.1083Z" fill="#2B0D16"/>
</svg>
