<svg width="112" height="108" viewBox="0 0 112 108" fill="none" xmlns="http://www.w3.org/2000/svg">
<path d="M111.639 31.8767C111.577 27.342 110.695 22.8524 109.033 18.6087C107.593 15.0292 105.392 11.7783 102.572 9.06385C99.7527 6.34937 96.3758 4.23097 92.6575 2.844C88.306 1.27146 83.7088 0.421159 79.0618 0.329305C73.0786 0.0718487 71.1817 0 55.9938 0C40.8059 0 38.8592 4.01484e-07 32.9196 0.329305C28.2746 0.421834 23.6796 1.27212 19.3301 2.844C15.6112 4.23001 12.2338 6.34807 9.41398 9.06267C6.59415 11.7773 4.39398 15.0286 2.95424 18.6087C1.31747 22.7947 0.436128 27.2192 0.34829 31.6911C0.0808529 37.4569 0 39.2831 0 53.9042C0 68.5253 -4.63386e-08 70.3934 0.34829 76.1173C0.441581 80.5959 1.31852 85.0145 2.95424 89.2117C4.3964 92.7907 6.5982 96.0407 9.41897 98.7542C12.2397 101.468 15.6175 103.585 19.3363 104.97C23.674 106.606 28.2698 107.517 32.9258 107.665C38.9152 107.922 40.8121 108 56 108C71.1879 108 73.1346 108 79.0742 107.665C83.7211 107.577 88.3185 106.728 92.6699 105.156C96.3872 103.767 99.7633 101.648 102.583 98.9342C105.402 96.2199 107.603 92.9699 109.046 89.3913C110.681 85.2001 111.558 80.7815 111.652 76.2969C111.919 70.5371 112 68.7109 112 54.0838C111.988 39.4627 111.988 37.6066 111.639 31.8767V31.8767ZM55.9565 81.5538C40.072 81.5538 27.2039 69.166 27.2039 53.8743C27.2039 38.5826 40.072 26.1947 55.9565 26.1947C63.5821 26.1947 70.8954 29.1109 76.2876 34.3019C81.6797 39.4928 84.709 46.5332 84.709 53.8743C84.709 61.2153 81.6797 68.2558 76.2876 73.4467C70.8954 78.6376 63.5821 81.5538 55.9565 81.5538V81.5538ZM85.8534 31.6252C84.9727 31.626 84.1005 31.4596 83.2867 31.1355C82.4729 30.8115 81.7335 30.3361 81.1107 29.7366C80.488 29.1371 79.9942 28.4252 79.6575 27.6418C79.3209 26.8583 79.148 26.0187 79.1488 25.1709C79.1488 24.3237 79.3222 23.4847 79.6589 22.702C79.9957 21.9193 80.4894 21.2081 81.1116 20.609C81.7339 20.01 82.4727 19.5348 83.2858 19.2106C84.0988 18.8864 84.9702 18.7195 85.8503 18.7195C86.7303 18.7195 87.6018 18.8864 88.4148 19.2106C89.2279 19.5348 89.9667 20.01 90.5889 20.609C91.2112 21.2081 91.7049 21.9193 92.0416 22.702C92.3784 23.4847 92.5518 24.3237 92.5518 25.1709C92.5518 28.7393 89.554 31.6252 85.8534 31.6252Z" fill="#F6F5EE"/>
<path d="M55.9573 71.8544C66.2724 71.8544 74.6344 63.8045 74.6344 53.8744C74.6344 43.9443 66.2724 35.8943 55.9573 35.8943C45.6423 35.8943 37.2803 43.9443 37.2803 53.8744C37.2803 63.8045 45.6423 71.8544 55.9573 71.8544Z" fill="#F6F5EE"/>
</svg>
