<svg width="512" height="512" viewBox="0 0 512 512" fill="none" xmlns="http://www.w3.org/2000/svg">
<g clip-path="url(#clip0_903_4228)">
<path d="M500.301 443.7L380.601 324C407.821 283.59 421.251 233.1 414.061 179.3C401.801 87.7899 326.801 13.3199 235.201 1.7229C99.0108 -15.5101 -15.5092 99.0099 1.7248 235.2C13.3248 326.84 87.8048 401.9 179.325 414.1C233.125 421.289 283.625 407.864 324.025 380.64L443.725 500.34C459.345 515.96 484.675 515.96 500.295 500.34C515.901 484.7 515.901 459.3 500.301 443.7ZM79.1008 208C79.1008 137.42 136.521 79.9999 207.101 79.9999C277.681 79.9999 335.101 137.42 335.101 208C335.101 278.58 277.681 336 207.101 336C136.521 336 79.1008 278.6 79.1008 208Z" fill="#2B0D16"/>
</g>
<defs>
<clipPath id="clip0_903_4228">
<rect width="512" height="512" fill="white"/>
</clipPath>
</defs>
</svg>
