<svg width="112" height="108" viewBox="0 0 112 108" fill="none" xmlns="http://www.w3.org/2000/svg">
<path d="M55.9972 0C25.067 0 0 24.1772 0 53.9973C0 76.8718 14.7588 96.4276 35.5938 104.297C35.1005 100.027 34.6633 93.4548 35.7844 88.7955C36.8046 84.5795 42.3538 61.9536 42.3538 61.9536C42.3538 61.9536 40.6778 58.716 40.6778 53.9324C40.6778 46.4301 45.1901 40.825 50.8123 40.825C55.5936 40.825 57.8974 44.2843 57.8974 48.43C57.8974 53.0676 54.8369 59.9916 53.2618 66.4129C51.9445 71.7856 56.0589 76.1691 61.5521 76.1691C71.5015 76.1691 79.1584 66.0507 79.1584 51.4407C79.1584 38.5116 69.5229 29.4742 55.7674 29.4742C39.8314 29.4742 30.4762 40.9979 30.4762 52.9054C30.4762 57.5431 32.3315 62.5212 34.6465 65.2291C34.8432 65.4331 34.9822 65.6825 35.0499 65.9532C35.1177 66.224 35.1119 66.507 35.0333 66.775C34.6073 68.4776 33.66 72.1477 33.4806 72.899C33.234 73.8882 32.6678 74.099 31.6028 73.6233C24.613 70.4829 20.2408 60.624 20.2408 52.7001C20.2408 35.6685 33.0714 20.026 57.2416 20.026C76.6696 20.026 91.7648 33.3713 91.7648 51.2136C91.7648 69.8289 79.5956 84.7957 62.7068 84.7957C57.0286 84.7957 51.6979 81.958 49.8706 78.6015L46.3785 91.4332C45.1173 96.1249 41.7036 102.006 39.4223 105.595C44.7928 107.194 50.3822 108.004 56.0028 108C86.9274 108 112 83.8228 112 54.0027C112 24.1826 86.9218 0 55.9972 0Z" fill="#F6F5EE"/>
</svg>
